<?xml version="1.0" encoding="UTF-8" standalone="no"?>
<svg
   width="900"
   height="900"
   viewBox="0 0 900 900"
   version="1.1"
   xml:space="preserve"
   id="SVGRoot"
   xmlns="http://www.w3.org/2000/svg"
   xmlns:svg="http://www.w3.org/2000/svg"><defs
   id="defs48" />

<style
   type="text/css"
   id="style1">
g.prefab path {
  vector-effect:non-scaling-stroke;
  -inkscape-stroke:hairline;
  fill: none;
  fill-opacity: 1;
  stroke-opacity: 1;
  stroke: #00349c;
}
</style>

<g
   id="layer1"
   transform="matrix(1.2327949,0,0,1.2327949,-95.602332,-226.45181)"><path
     id="path50"
     style="vector-effect:non-scaling-stroke;fill:#ffffff;-inkscape-stroke:hairline;paint-order:fill markers stroke"
     d="m 94.542969,555.59961 a 26.023632,33.90958 0 0 1 7.767581,24.15625 26.023632,33.90958 0 0 1 -7.822269,24.20703 H 376.25781 a 69.122681,68.772995 0 0 1 28.45508,-48.36328 z m 389.814451,0 a 69.122681,68.772995 0 0 1 28.28125,48.58203 h 267.82031 a 22.992661,30.390335 0 0 0 11.70118,-26.36719 22.992661,30.390335 0 0 0 -7.36133,-22.21484 z m -379.91601,68.4375 A 22.992661,30.390335 0 0 0 95.5,647.95508 a 22.992661,30.390335 0 0 0 9.33594,24.38086 H 412.1543 a 69.122681,68.772995 0 0 1 -35.13086,-48.29883 z m 407.35547,0.21875 a 69.122681,68.772995 0 0 1 -35.09961,48.08008 h 316.56835 a 26.023632,33.90958 0 0 1 -7.58398,-23.92188 26.023632,33.90958 0 0 1 7.78125,-24.1582 z" /><path
     id="path49"
     style="vector-effect:non-scaling-stroke;fill:#ffffff;stroke-width:1.11611;-inkscape-stroke:hairline;paint-order:fill markers stroke"
     d="m 443.79883,553.7168 a 58.454597,58.158878 0 0 0 -58.45508,58.1582 58.454597,58.158878 0 0 0 58.45508,58.16016 58.454597,58.158878 0 0 0 58.45508,-58.16016 58.454597,58.158878 0 0 0 -58.45508,-58.1582 z m 0.28711,8.74804 a 49,49.869846 0 0 1 49,49.8711 49,49.869846 0 0 1 -49,49.86914 49,49.869846 0 0 1 -49,-49.86914 49,49.869846 0 0 1 49,-49.8711 z" /><path
     d="m 460.91217,677.89625 -58.35028,0.0957 -89.7999,138.00371 109.53324,52.97398 z"
     style="vector-effect:non-scaling-stroke;fill:#ffffff;stroke-width:1.15543;-inkscape-stroke:hairline;paint-order:fill markers stroke"
     id="path52" /><path
     id="path52-8"
     style="vector-effect:non-scaling-stroke;fill:#ffffff;stroke-width:1.15543;-inkscape-stroke:hairline;paint-order:fill markers stroke"
     d="m 470.28176,678.18625 -16.04297,79.51953 32.95898,99.77344 71.61328,-57.99219 -72.51367,-121.27539 z" /><path
     d="m 334.81489,273.97021 h 70.74338 v 57.74968 H 376.68343 V 297.07008 H 132.69097 v 34.64981 h -28.87485 v -57.74968 h 67.8559 c -4.81248,-8.66246 -10.1062,-16.84367 -15.88117,-24.54363 l 27.4311,-17.3249 c 6.73747,6.73747 13.47494,16.84366 20.21239,30.31858 l -20.21239,11.54995 h 57.74969 v -46.19975 h 27.4311 c 7.69996,0.96249 8.18121,3.84998 1.44374,8.66245 v 37.5373 h 31.76234 l 20.21239,-43.31227 31.76233,11.54994 c 3.84999,3.84998 2.40624,6.25621 -4.33123,7.2187 z M 125.47227,392.35709 c 89.51202,1.92499 170.36158,-1.92499 242.54869,-11.54994 l 17.32492,23.09986 c 1.92499,4.81247 -1.44375,5.77497 -10.1062,2.8875 -34.64982,2.88747 -68.33714,5.29371 -101.06196,7.2187 v 20.2124 h 109.72442 v 23.09986 H 274.17772 v 17.32493 h 141.48674 v 23.09987 H 274.17772 v 36.09357 c 0,5.63882 -0.42569,13.38706 -2.21454,14.47783 -0.31317,0.19096 -0.56216,-0.005 -0.51908,0.0108 0.32432,0.12055 -17.50296,-0.10265 -17.75759,-0.0615 l -35.91331,0.0187 -4.23266,-21.66451 h 25.98736 c 3.84999,0 5.77498,-1.92499 5.77498,-5.77496 V 497.75032 H 95.153675 V 474.65045 H 245.30288 V 457.32547 H 126.916 v -23.09986 h 118.38688 v -20.2124 c -37.53731,0.96249 -75.55587,1.44374 -114.05566,1.44374 z m 36.09354,-76.51835 h 186.24276 v 57.74969 H 161.56581 Z m 157.36793,40.42478 V 333.16364 H 190.44067 v 23.09988 z m 176.13655,170.36159 c 3.84998,0 5.77497,-1.92499 5.77497,-5.77496 v -92.39951 c -9.62495,3.84998 -18.76865,7.21871 -27.4311,10.1062 -4.81247,8.66245 -8.1812,9.1437 -10.1062,1.44374 L 457.533,412.56947 c 13.47493,-3.84997 27.91235,-8.1812 43.31226,-12.99368 v -70.74337 h -40.42479 v -27.43111 h 40.42479 V 229.2142 h 27.4311 c 7.69997,0.96249 8.18122,3.84997 1.44375,8.66244 v 63.52467 h 37.5373 v 27.43111 h -37.5373 v 63.52467 c 12.51245,-3.84999 25.02488,-8.18121 37.5373,-12.99368 l 2.88749,25.98736 c -12.51243,4.81247 -25.98736,9.62494 -40.42479,14.43742 l -0.40626,128.62489 c -10e-4,0.40215 -24.05496,-0.13999 -22.69361,-0.0602 l -19.0155,-0.0817 -6.97186,-21.64614 z m 124.16185,-122.7181 h 21.65614 c 7.69995,-13.47492 13.95617,-27.43109 18.76865,-41.86852 h -53.41847 v 59.19344 c 0,55.82471 -11.80479,95.34075 -40.67964,127.10307 l -8.3873,-0.0504 -15.90148,-20.21576 c 24.06239,-24.06237 36.09358,-60.63718 36.09358,-109.72441 V 236.43291 h 196.34896 v 76.51835 H 606.23846 v 25.98735 h 177.58031 v 23.09988 h -93.84326 c -7.69996,19.2499 -15.39992,33.68733 -23.09988,43.31228 l 72.18712,-2.8875 c -6.73745,-7.69995 -14.43741,-14.43741 -23.09987,-20.21238 l 17.32491,-12.99369 c 19.24989,12.51243 37.05605,29.3561 53.41847,50.53099 l -21.65615,14.43742 c -3.84998,-5.77497 -7.69995,-10.58744 -11.54992,-14.43742 l -43.31228,4.33122 v 34.64981 h 64.96841 v 27.43111 h -64.96841 v 34.64982 h 83.73705 v 27.4311 H 599.01974 v -27.4311 h 82.29332 v -34.64982 h -54.86221 v -27.43111 h 54.86221 V 427.0069 l -47.6435,2.88748 c -3.84997,5.77497 -7.2187,6.25622 -10.10619,1.44374 z M 744.83773,289.85137 V 259.53278 H 606.23846 v 30.31859 z"
     id="text52"
     style="font-size:332.895px;white-space:pre;inline-size:702.986;fill:#ffffff;stroke-width:30.7998;paint-order:fill markers stroke"
     aria-label="掌握" /><path
     d="m 394.47835,154.39662 c -0.6433,-0.1219 -0.37935,-0.0263 -1.31313,-0.29688 -0.5895,-0.14811 -1.12392,-0.63711 -1.032,-0.60914 l -0.007,-1.3134 c 0.1296,0.11623 0.33117,0.42639 0.5197,0.53675 0.38668,0.22634 0.47759,0.21468 0.56717,0.28179 0.1022,0.0242 0.4221,0.13018 0.52386,0.14027 0.34628,0.0343 0.4373,0.0168 0.74814,0.0277 v -2.244 c -0.552,-0.168 -1.004,-0.352 -1.356,-0.552 -0.344,-0.2 -0.6,-0.436 -0.768,-0.708 -0.16,-0.28 -0.34305,-0.62174 -0.34305,-0.99774 0,-0.392 0.1647,-0.70052 0.3567,-0.98052 0.2,-0.288 0.51035,-0.57096 0.86235,-0.73896 0.36,-0.168 0.78974,-0.32983 1.26174,-0.36183 l -0.0137,-0.94138 0.38323,-0.18217 0.39191,0.18945 0.005,0.9221 c 0.432,0.008 0.85548,0.0972 1.21548,0.18522 0.50079,0.1986 0.74653,0.41581 0.9513,0.6194 l 0.009,1.16253 c -0.27462,-0.20139 -1.09092,-0.67252 -1.34829,-0.73628 -0.46296,-0.1429 -0.57717,-0.11587 -0.82095,-0.11478 l -0.007,2.26296 c 0.496,0.16 0.924,0.328 1.284,0.504 0.368,0.176 0.652,0.396 0.852,0.66 0.2,0.256 0.41679,0.60287 0.41679,1.02687 0,0.568 -0.23261,1.05948 -0.65661,1.41948 -0.416,0.36 -1.10531,0.73801 -1.88931,0.81801 l -0.007,1.1255 h -0.78 z m 0.78687,-1.28088 c 0.416,-0.048 0.716,-0.148 0.9,-0.3 0.192,-0.16 0.288,-0.364 0.288,-0.612 0,-0.168 -0.04,-0.312 -0.12,-0.432 -0.072,-0.12 -0.196,-0.224 -0.372,-0.312 -0.168,-0.088 -0.4,-0.176 -0.696,-0.264 z m -0.77313,-5.40009 c -0.248,0.016 -0.51096,0.0846 -0.67896,0.16461 -0.16,0.072 -0.27026,0.19548 -0.35826,0.31548 -0.08,0.12 -0.0857,0.26 -0.0857,0.42 0,0.176 0.036,0.332 0.108,0.468 0.072,0.128 0.188,0.24 0.348,0.336 0.16,0.088 0.38,0.172 0.66,0.252 z"
     id="text53"
     style="white-space:pre;fill:#ffffff;paint-order:fill markers stroke"
     aria-label="$"
     transform="matrix(10.146187,0,0,10.146187,-3562.1591,-915.33672)" /></g></svg>
