<svg xmlns="http://www.w3.org/2000/svg" xmlns:xlink="http://www.w3.org/1999/xlink" width="2000" zoomAndPan="magnify" viewBox="0 0 1500 1499.999933" height="2000" preserveAspectRatio="xMidYMid meet" version="1.0"><defs><clipPath id="770efccb76"><path d="M 47.648438 764.113281 L 1452 764.113281 L 1452 999 L 47.648438 999 Z M 47.648438 764.113281 " clip-rule="nonzero"/></clipPath><clipPath id="d46f723a8a"><path d="M 47.757812 764.523438 C 57.722656 777.3125 63.34375 794.789062 63.34375 813.027344 C 63.34375 831.328125 57.679688 848.828125 47.648438 861.636719 L 613.523438 861.636719 C 617.84375 822.667969 638.621094 787.363281 670.667969 764.523438 Z M 830.632812 764.523438 C 862.660156 787.515625 883.304688 822.992188 887.429688 862.070312 L 1425.300781 862.070312 C 1439.757812 851.304688 1448.746094 831.070312 1448.789062 809.117188 C 1448.746094 792.183594 1443.40625 776.03125 1434.003906 764.523438 Z M 67.644531 901.933594 C 56.375 913.417969 49.753906 931.136719 49.691406 949.957031 C 49.710938 969.28125 56.660156 987.453125 68.425781 998.917969 L 685.625 998.917969 C 648.523438 978.941406 622.554688 943.25 615.066406 901.933594 Z M 885.757812 902.367188 C 878.160156 943.511719 852.257812 979.007812 815.261719 998.917969 L 1451.027344 998.917969 C 1441.277344 986.152344 1435.785156 968.890625 1435.785156 950.890625 C 1435.785156 932.65625 1441.429688 915.175781 1451.417969 902.390625 Z M 885.757812 902.367188 " clip-rule="nonzero"/></clipPath><clipPath id="674f13d389"><path d="M 0.648438 0.398438 L 1404.519531 0.398438 L 1404.519531 235 L 0.648438 235 Z M 0.648438 0.398438 " clip-rule="nonzero"/></clipPath><clipPath id="735cf81f57"><path d="M 0.757812 0.523438 C 10.722656 13.3125 16.34375 30.789062 16.34375 49.027344 C 16.34375 67.328125 10.679688 84.828125 0.648438 97.636719 L 566.523438 97.636719 C 570.84375 58.667969 591.621094 23.363281 623.667969 0.523438 Z M 783.632812 0.523438 C 815.660156 23.515625 836.304688 58.992188 840.429688 98.070312 L 1378.300781 98.070312 C 1392.757812 87.304688 1401.746094 67.070312 1401.789062 45.117188 C 1401.746094 28.183594 1396.40625 12.03125 1387.003906 0.523438 Z M 20.644531 137.933594 C 9.375 149.417969 2.753906 167.136719 2.691406 185.957031 C 2.710938 205.28125 9.660156 223.453125 21.425781 234.917969 L 638.625 234.917969 C 601.523438 214.941406 575.554688 179.25 568.066406 137.933594 Z M 838.757812 138.367188 C 831.160156 179.511719 805.257812 215.007812 768.261719 234.917969 L 1404.027344 234.917969 C 1394.277344 222.152344 1388.785156 204.890625 1388.785156 186.890625 C 1388.785156 168.65625 1394.429688 151.175781 1404.417969 138.390625 Z M 838.757812 138.367188 " clip-rule="nonzero"/></clipPath><clipPath id="6f2140afac"><rect x="0" width="1405" y="0" height="235"/></clipPath><clipPath id="a397d0eb2e"><path d="M 631.675781 760 L 867 760 L 867 995 L 631.675781 995 Z M 631.675781 760 " clip-rule="nonzero"/></clipPath><clipPath id="be510b5626"><path d="M 749.175781 760.746094 C 684.347656 760.746094 631.785156 813.027344 631.785156 877.53125 C 631.785156 908.511719 644.160156 938.210938 666.171875 960.117188 C 688.1875 982.027344 718.042969 994.3125 749.175781 994.3125 C 780.308594 994.3125 810.183594 982.003906 832.199219 960.117188 C 854.210938 938.234375 866.589844 908.511719 866.589844 877.53125 C 866.589844 813.046875 814.027344 760.746094 749.195312 760.746094 Z M 749.761719 778.3125 C 775.859375 778.3125 800.890625 788.863281 819.34375 807.644531 C 837.800781 826.421875 848.175781 851.890625 848.175781 878.441406 C 848.175781 933.738281 804.125 978.574219 749.761719 978.574219 C 695.398438 978.574219 651.367188 933.738281 651.367188 878.441406 C 651.367188 851.890625 661.722656 826.421875 680.175781 807.644531 C 698.632812 788.863281 723.664062 778.3125 749.761719 778.3125 Z M 749.761719 778.3125 " clip-rule="nonzero"/></clipPath><clipPath id="d1812c7788"><path d="M 0.679688 0.558594 L 235.640625 0.558594 L 235.640625 234.320312 L 0.679688 234.320312 Z M 0.679688 0.558594 " clip-rule="nonzero"/></clipPath><clipPath id="146d1bd02c"><path d="M 118.175781 0.746094 C 53.347656 0.746094 0.785156 53.027344 0.785156 117.53125 C 0.785156 148.511719 13.160156 178.210938 35.171875 200.117188 C 57.1875 222.027344 87.042969 234.3125 118.175781 234.3125 C 149.308594 234.3125 179.183594 222.003906 201.199219 200.117188 C 223.210938 178.234375 235.589844 148.511719 235.589844 117.53125 C 235.589844 53.046875 183.027344 0.746094 118.195312 0.746094 Z M 118.761719 18.3125 C 144.859375 18.3125 169.890625 28.863281 188.34375 47.644531 C 206.800781 66.421875 217.175781 91.890625 217.175781 118.441406 C 217.175781 173.738281 173.125 218.574219 118.761719 218.574219 C 64.398438 218.574219 20.367188 173.738281 20.367188 118.441406 C 20.367188 91.890625 30.722656 66.421875 49.175781 47.644531 C 67.632812 28.863281 92.664062 18.3125 118.761719 18.3125 Z M 118.761719 18.3125 " clip-rule="nonzero"/></clipPath><clipPath id="e19cbbb300"><rect x="0" width="236" y="0" height="235"/></clipPath><clipPath id="597ea9ee60"><path d="M 485 1010 L 783.652344 1010 L 783.652344 1393.730469 L 485 1393.730469 Z M 485 1010 " clip-rule="nonzero"/></clipPath><clipPath id="520a205472"><path d="M 783.542969 1010.078125 L 666.347656 1010.273438 L 485.992188 1287.371094 L 705.992188 1393.730469 Z M 783.542969 1010.078125 " clip-rule="nonzero"/></clipPath><clipPath id="240b08590e"><path d="M 0.761719 0 L 298.601562 0 L 298.601562 383.730469 L 0.761719 383.730469 Z M 0.761719 0 " clip-rule="nonzero"/></clipPath><clipPath id="15c3233313"><path d="M 298.542969 0.078125 L 181.347656 0.273438 L 0.992188 277.371094 L 220.992188 383.730469 Z M 298.542969 0.078125 " clip-rule="nonzero"/></clipPath><clipPath id="209848a996"><rect x="0" width="299" y="0" height="384"/></clipPath><clipPath id="b021847ac3"><path d="M 770 1010 L 981 1010 L 981 1371 L 770 1371 Z M 770 1010 " clip-rule="nonzero"/></clipPath><clipPath id="9604d19ef5"><path d="M 802.367188 1010.664062 L 770.148438 1170.324219 L 836.34375 1370.652344 L 980.160156 1254.214844 L 834.519531 1010.707031 Z M 802.367188 1010.664062 " clip-rule="nonzero"/></clipPath><clipPath id="7ad2cb5ca2"><path d="M 0 0.640625 L 210.160156 0.640625 L 210.160156 360.878906 L 0 360.878906 Z M 0 0.640625 " clip-rule="nonzero"/></clipPath><clipPath id="01fdd15483"><path d="M 32.367188 0.664062 L 0.148438 160.324219 L 66.34375 360.652344 L 210.160156 244.214844 L 64.519531 0.707031 Z M 32.367188 0.664062 " clip-rule="nonzero"/></clipPath><clipPath id="1b5f86c280"><rect x="0" width="211" y="0" height="361"/></clipPath><clipPath id="8b1ac1b562"><path d="M 48 106.269531 L 1452.351562 106.269531 L 1452.351562 751 L 48 751 Z M 48 106.269531 " clip-rule="nonzero"/></clipPath><clipPath id="33e115089a"><path d="M 530.304688 199.039062 L 672.382812 199.039062 L 672.382812 314.996094 L 614.394531 314.996094 L 614.394531 245.414062 L 124.375 245.414062 L 124.375 314.996094 L 66.386719 314.996094 L 66.386719 199.039062 L 202.664062 199.039062 C 193.003906 181.648438 182.367188 165.214844 170.773438 149.753906 L 225.851562 114.953125 C 239.378906 128.480469 252.90625 148.777344 266.429688 175.832031 L 225.851562 199.039062 L 341.832031 199.039062 L 341.832031 106.269531 L 396.933594 106.269531 C 412.394531 108.199219 413.371094 113.996094 399.84375 123.660156 L 399.84375 199.039062 L 463.632812 199.039062 L 504.230469 112.085938 L 568.019531 135.273438 C 575.746094 143.003906 572.859375 147.84375 559.3125 149.753906 Z M 109.871094 436.730469 C 289.640625 440.597656 452.015625 432.867188 597.003906 413.542969 L 631.785156 459.917969 C 635.648438 469.582031 628.875 471.511719 611.484375 465.714844 C 541.898438 471.511719 474.25 476.355469 408.527344 480.21875 L 408.527344 520.820312 L 628.894531 520.820312 L 628.894531 567.191406 L 408.527344 567.191406 L 408.527344 601.972656 L 692.683594 601.972656 L 692.683594 648.347656 L 408.527344 648.347656 L 408.527344 720.820312 C 408.527344 732.132812 407.683594 747.699219 404.078125 749.890625 C 403.449219 750.28125 402.949219 749.871094 403.035156 749.914062 C 403.6875 750.152344 367.886719 749.71875 367.363281 749.804688 L 295.242188 749.847656 L 286.730469 706.339844 L 338.921875 706.339844 C 346.652344 706.339844 350.515625 702.472656 350.515625 694.746094 L 350.515625 648.347656 L 48.996094 648.347656 L 48.996094 601.972656 L 350.539062 601.972656 L 350.539062 567.191406 L 112.78125 567.191406 L 112.78125 520.820312 L 350.539062 520.820312 L 350.539062 480.21875 C 275.160156 482.152344 198.800781 483.128906 121.488281 483.128906 Z M 182.367188 283.105469 L 556.402344 283.105469 L 556.402344 399.0625 L 182.367188 399.0625 Z M 498.414062 364.28125 L 498.414062 317.886719 L 240.355469 317.886719 L 240.355469 364.261719 Z M 852.148438 706.339844 C 859.878906 706.339844 863.742188 702.472656 863.742188 694.746094 L 863.742188 509.203125 C 844.421875 516.933594 826.054688 523.707031 808.664062 529.503906 C 799 546.894531 792.226562 547.871094 788.363281 532.410156 L 776.769531 477.332031 C 803.820312 469.601562 832.828125 460.894531 863.742188 451.234375 L 863.742188 309.179688 L 782.566406 309.179688 L 782.566406 254.121094 L 863.742188 254.121094 L 863.742188 109.175781 L 918.847656 109.175781 C 934.304688 111.109375 935.28125 116.90625 921.753906 126.566406 L 921.753906 254.121094 L 997.136719 254.121094 L 997.136719 309.179688 L 921.734375 309.179688 L 921.734375 436.730469 C 946.855469 429.003906 971.996094 420.296875 997.113281 410.636719 L 1002.933594 462.828125 C 977.8125 472.488281 950.738281 482.152344 921.753906 491.8125 L 920.929688 750.085938 C 920.929688 750.890625 872.625 749.804688 875.359375 749.976562 L 837.167969 749.828125 L 823.167969 706.359375 Z M 1101.5 459.941406 L 1145.011719 459.941406 C 1160.46875 432.890625 1173.039062 404.859375 1182.699219 375.875 L 1075.40625 375.875 L 1075.40625 494.722656 C 1075.40625 606.816406 1051.695312 686.167969 993.707031 749.933594 L 976.859375 749.828125 L 944.921875 709.226562 C 993.25 660.917969 1017.414062 587.472656 1017.414062 488.902344 L 1017.414062 123.660156 L 1411.75 123.660156 L 1411.75 277.308594 L 1075.40625 277.308594 L 1075.40625 329.5 L 1432.050781 329.5 L 1432.050781 375.875 L 1243.578125 375.875 C 1228.121094 414.519531 1212.640625 443.527344 1197.183594 462.828125 L 1342.144531 457.03125 C 1328.621094 441.574219 1313.160156 428.027344 1295.75 416.433594 L 1330.550781 390.335938 C 1369.21875 415.453125 1404.976562 449.28125 1437.828125 491.789062 L 1394.339844 520.796875 C 1386.609375 509.203125 1378.882812 499.542969 1371.152344 491.789062 L 1284.15625 500.496094 L 1284.15625 570.058594 L 1414.640625 570.058594 L 1414.640625 625.160156 L 1284.15625 625.160156 L 1284.15625 694.722656 L 1452.351562 694.722656 L 1452.351562 749.804688 L 1060.921875 749.804688 L 1060.921875 694.746094 L 1226.1875 694.746094 L 1226.1875 625.160156 L 1116.003906 625.160156 L 1116.003906 570.082031 L 1226.1875 570.082031 L 1226.1875 506.316406 L 1130.507812 512.113281 C 1122.777344 523.707031 1116.003906 524.683594 1110.207031 515.023438 Z M 1353.761719 230.910156 L 1353.761719 170.054688 L 1075.40625 170.054688 L 1075.40625 230.910156 Z M 1353.761719 230.910156 " clip-rule="nonzero"/></clipPath><clipPath id="f55ef59ead"><path d="M 0.960938 0.269531 L 1404.351562 0.269531 L 1404.351562 644.960938 L 0.960938 644.960938 Z M 0.960938 0.269531 " clip-rule="nonzero"/></clipPath><clipPath id="7d51824cea"><path d="M 482.304688 93.039062 L 624.382812 93.039062 L 624.382812 208.996094 L 566.394531 208.996094 L 566.394531 139.414062 L 76.375 139.414062 L 76.375 208.996094 L 18.386719 208.996094 L 18.386719 93.039062 L 154.664062 93.039062 C 145.003906 75.648438 134.367188 59.214844 122.773438 43.753906 L 177.851562 8.953125 C 191.378906 22.480469 204.90625 42.777344 218.429688 69.832031 L 177.851562 93.039062 L 293.832031 93.039062 L 293.832031 0.269531 L 348.933594 0.269531 C 364.394531 2.199219 365.371094 7.996094 351.84375 17.660156 L 351.84375 93.039062 L 415.632812 93.039062 L 456.230469 6.085938 L 520.019531 29.273438 C 527.746094 37.003906 524.859375 41.84375 511.3125 43.753906 Z M 61.871094 330.730469 C 241.640625 334.597656 404.015625 326.867188 549.003906 307.542969 L 583.785156 353.917969 C 587.648438 363.582031 580.875 365.511719 563.484375 359.714844 C 493.898438 365.511719 426.25 370.355469 360.527344 374.21875 L 360.527344 414.820312 L 580.894531 414.820312 L 580.894531 461.191406 L 360.527344 461.191406 L 360.527344 495.972656 L 644.683594 495.972656 L 644.683594 542.347656 L 360.527344 542.347656 L 360.527344 614.820312 C 360.527344 626.132812 359.683594 641.699219 356.078125 643.890625 C 355.449219 644.28125 354.949219 643.871094 355.035156 643.914062 C 355.6875 644.152344 319.886719 643.71875 319.363281 643.804688 L 247.242188 643.847656 L 238.730469 600.339844 L 290.921875 600.339844 C 298.652344 600.339844 302.515625 596.472656 302.515625 588.746094 L 302.515625 542.347656 L 0.996094 542.347656 L 0.996094 495.972656 L 302.539062 495.972656 L 302.539062 461.191406 L 64.78125 461.191406 L 64.78125 414.820312 L 302.539062 414.820312 L 302.539062 374.21875 C 227.160156 376.152344 150.800781 377.128906 73.488281 377.128906 Z M 134.367188 177.105469 L 508.402344 177.105469 L 508.402344 293.0625 L 134.367188 293.0625 Z M 450.414062 258.28125 L 450.414062 211.886719 L 192.355469 211.886719 L 192.355469 258.261719 Z M 804.148438 600.339844 C 811.878906 600.339844 815.742188 596.472656 815.742188 588.746094 L 815.742188 403.203125 C 796.421875 410.933594 778.054688 417.707031 760.664062 423.503906 C 751 440.894531 744.226562 441.871094 740.363281 426.410156 L 728.769531 371.332031 C 755.820312 363.601562 784.828125 354.894531 815.742188 345.234375 L 815.742188 203.179688 L 734.566406 203.179688 L 734.566406 148.121094 L 815.742188 148.121094 L 815.742188 3.175781 L 870.847656 3.175781 C 886.304688 5.109375 887.28125 10.90625 873.753906 20.566406 L 873.753906 148.121094 L 949.136719 148.121094 L 949.136719 203.179688 L 873.734375 203.179688 L 873.734375 330.730469 C 898.855469 323.003906 923.996094 314.296875 949.113281 304.636719 L 954.933594 356.828125 C 929.8125 366.488281 902.738281 376.152344 873.753906 385.8125 L 872.929688 644.085938 C 872.929688 644.890625 824.625 643.804688 827.359375 643.976562 L 789.167969 643.828125 L 775.167969 600.359375 Z M 1053.5 353.941406 L 1097.011719 353.941406 C 1112.46875 326.890625 1125.039062 298.859375 1134.699219 269.875 L 1027.40625 269.875 L 1027.40625 388.722656 C 1027.40625 500.816406 1003.695312 580.167969 945.707031 643.933594 L 928.859375 643.828125 L 896.921875 603.226562 C 945.25 554.917969 969.414062 481.472656 969.414062 382.902344 L 969.414062 17.660156 L 1363.75 17.660156 L 1363.75 171.308594 L 1027.40625 171.308594 L 1027.40625 223.5 L 1384.050781 223.5 L 1384.050781 269.875 L 1195.578125 269.875 C 1180.121094 308.519531 1164.640625 337.527344 1149.183594 356.828125 L 1294.144531 351.03125 C 1280.621094 335.574219 1265.160156 322.027344 1247.75 310.433594 L 1282.550781 284.335938 C 1321.21875 309.453125 1356.976562 343.28125 1389.828125 385.789062 L 1346.339844 414.796875 C 1338.609375 403.203125 1330.882812 393.542969 1323.152344 385.789062 L 1236.15625 394.496094 L 1236.15625 464.058594 L 1366.640625 464.058594 L 1366.640625 519.160156 L 1236.15625 519.160156 L 1236.15625 588.722656 L 1404.351562 588.722656 L 1404.351562 643.804688 L 1012.921875 643.804688 L 1012.921875 588.746094 L 1178.1875 588.746094 L 1178.1875 519.160156 L 1068.003906 519.160156 L 1068.003906 464.082031 L 1178.1875 464.082031 L 1178.1875 400.316406 L 1082.507812 406.113281 C 1074.777344 417.707031 1068.003906 418.683594 1062.207031 409.023438 Z M 1305.761719 124.910156 L 1305.761719 64.054688 L 1027.40625 64.054688 L 1027.40625 124.910156 Z M 1305.761719 124.910156 " clip-rule="nonzero"/></clipPath><clipPath id="9aac5f878e"><rect x="0" width="1405" y="0" height="645"/></clipPath><clipPath id="89672c6393"><path d="M 692 774 L 811 774 L 811 979.050781 L 692 979.050781 Z M 692 774 " clip-rule="nonzero"/></clipPath><clipPath id="f48a523c5b"><path d="M 742.140625 956.472656 C 729.027344 953.996094 734.410156 955.929688 715.390625 950.414062 C 703.386719 947.398438 692.488281 937.429688 694.355469 937.996094 L 694.222656 911.246094 C 696.851562 913.613281 700.976562 919.933594 704.820312 922.191406 C 712.699219 926.792969 714.546875 926.554688 716.371094 927.921875 C 718.453125 928.421875 724.96875 930.570312 727.050781 930.789062 C 734.109375 931.480469 735.953125 931.136719 742.292969 931.351562 L 742.292969 885.648438 C 731.046875 882.21875 721.839844 878.484375 714.65625 874.402344 C 707.640625 870.324219 702.429688 865.523438 699 859.988281 C 695.746094 854.277344 692.011719 847.308594 692.011719 839.667969 C 692.011719 831.675781 695.351562 825.402344 699.28125 819.691406 C 703.363281 813.832031 709.683594 808.054688 716.847656 804.648438 C 724.183594 801.214844 732.933594 797.917969 742.554688 797.265625 L 742.269531 778.09375 L 750.085938 774.382812 L 758.078125 778.246094 L 758.183594 797.027344 C 766.976562 797.179688 775.617188 799 782.957031 800.804688 C 793.160156 804.84375 798.175781 809.269531 802.34375 813.417969 L 802.519531 837.105469 C 796.9375 833 780.285156 823.40625 775.054688 822.101562 C 765.632812 819.191406 763.285156 819.734375 758.316406 819.777344 L 758.183594 865.871094 C 768.28125 869.128906 777.007812 872.558594 784.347656 876.140625 C 791.835938 879.722656 797.632812 884.21875 801.714844 889.601562 C 805.796875 894.8125 810.203125 901.890625 810.203125 910.53125 C 810.203125 922.101562 805.472656 932.113281 796.832031 939.449219 C 788.339844 946.789062 774.292969 954.496094 758.335938 956.125 L 758.183594 979.050781 L 742.292969 979.050781 Z M 758.183594 930.375 C 766.652344 929.398438 772.773438 927.355469 776.53125 924.253906 C 780.4375 920.996094 782.394531 916.847656 782.394531 911.789062 C 782.394531 908.359375 781.566406 905.429688 779.960938 902.996094 C 778.484375 900.566406 775.964844 898.4375 772.382812 896.636719 C 768.953125 894.835938 764.242188 893.054688 758.207031 891.25 Z M 742.421875 820.367188 C 737.363281 820.691406 732 822.082031 728.59375 823.707031 C 725.335938 825.183594 723.078125 827.703125 721.296875 830.136719 C 719.667969 832.566406 719.5625 835.433594 719.5625 838.6875 C 719.5625 842.273438 720.300781 845.464844 721.753906 848.21875 C 723.230469 850.824219 725.597656 853.105469 728.851562 855.058594 C 732.109375 856.863281 736.605469 858.578125 742.292969 860.203125 Z M 742.421875 820.367188 " clip-rule="nonzero"/></clipPath><clipPath id="932cfe1868"><path d="M 0 0.238281 L 118.238281 0.238281 L 118.238281 205.050781 L 0 205.050781 Z M 0 0.238281 " clip-rule="nonzero"/></clipPath><clipPath id="6c3dd1e94f"><path d="M 50.140625 182.472656 C 37.027344 179.996094 42.410156 181.929688 23.390625 176.414062 C 11.386719 173.398438 0.488281 163.429688 2.355469 163.996094 L 2.222656 137.246094 C 4.851562 139.613281 8.976562 145.933594 12.820312 148.191406 C 20.699219 152.792969 22.546875 152.554688 24.371094 153.921875 C 26.453125 154.421875 32.96875 156.570312 35.050781 156.789062 C 42.109375 157.480469 43.953125 157.136719 50.292969 157.351562 L 50.292969 111.648438 C 39.046875 108.21875 29.839844 104.484375 22.65625 100.402344 C 15.640625 96.324219 10.429688 91.523438 7 85.988281 C 3.746094 80.277344 0.0117188 73.308594 0.0117188 65.667969 C 0.0117188 57.675781 3.351562 51.402344 7.28125 45.691406 C 11.363281 39.832031 17.683594 34.054688 24.847656 30.648438 C 32.183594 27.214844 40.933594 23.917969 50.554688 23.265625 L 50.269531 4.09375 L 58.085938 0.382812 L 66.078125 4.246094 L 66.183594 23.027344 C 74.976562 23.179688 83.617188 25 90.957031 26.804688 C 101.160156 30.84375 106.175781 35.269531 110.34375 39.417969 L 110.519531 63.105469 C 104.9375 59 88.285156 49.40625 83.054688 48.101562 C 73.632812 45.191406 71.285156 45.734375 66.316406 45.777344 L 66.183594 91.871094 C 76.28125 95.128906 85.007812 98.558594 92.347656 102.140625 C 99.835938 105.722656 105.632812 110.21875 109.714844 115.601562 C 113.796875 120.8125 118.203125 127.890625 118.203125 136.53125 C 118.203125 148.101562 113.472656 158.113281 104.832031 165.449219 C 96.339844 172.789062 82.292969 180.496094 66.335938 182.125 L 66.183594 205.050781 L 50.292969 205.050781 Z M 66.183594 156.375 C 74.652344 155.398438 80.773438 153.355469 84.53125 150.253906 C 88.4375 146.996094 90.394531 142.847656 90.394531 137.789062 C 90.394531 134.359375 89.566406 131.429688 87.960938 128.996094 C 86.484375 126.566406 83.964844 124.4375 80.382812 122.636719 C 76.953125 120.835938 72.242188 119.054688 66.207031 117.25 Z M 50.421875 46.367188 C 45.363281 46.691406 40 48.082031 36.59375 49.707031 C 33.335938 51.183594 31.078125 53.703125 29.296875 56.136719 C 27.667969 58.566406 27.5625 61.433594 27.5625 64.6875 C 27.5625 68.273438 28.300781 71.464844 29.753906 74.21875 C 31.230469 76.824219 33.597656 79.105469 36.851562 81.058594 C 40.109375 82.863281 44.605469 84.578125 50.292969 86.203125 Z M 50.421875 46.367188 " clip-rule="nonzero"/></clipPath><clipPath id="0061bc856d"><rect x="0" width="119" y="0" height="206"/></clipPath></defs><g clip-path="url(#770efccb76)"><g clip-path="url(#d46f723a8a)"><g transform="matrix(1, 0, 0, 1, 47, 764)"><g clip-path="url(#6f2140afac)"><g clip-path="url(#674f13d389)"><g clip-path="url(#735cf81f57)"><rect x="-377" width="2160" fill="#ebebeb" height="2159.999904" y="-1093.999985" fill-opacity="1"/></g></g></g></g></g></g><g clip-path="url(#a397d0eb2e)"><g clip-path="url(#be510b5626)"><g transform="matrix(1, 0, 0, 1, 631, 760)"><g clip-path="url(#e19cbbb300)"><g clip-path="url(#d1812c7788)"><g clip-path="url(#146d1bd02c)"><rect x="-961" width="2160" fill="#ebebeb" height="2159.999904" y="-1089.999985" fill-opacity="1"/></g></g></g></g></g></g><g clip-path="url(#597ea9ee60)"><g clip-path="url(#520a205472)"><g transform="matrix(1, 0, 0, 1, 485, 1010)"><g clip-path="url(#209848a996)"><g clip-path="url(#240b08590e)"><g clip-path="url(#15c3233313)"><rect x="-815" width="2160" fill="#ebebeb" height="2159.999904" y="-1339.999985" fill-opacity="1"/></g></g></g></g></g></g><g clip-path="url(#b021847ac3)"><g clip-path="url(#9604d19ef5)"><g transform="matrix(1, 0, 0, 1, 770, 1010)"><g clip-path="url(#1b5f86c280)"><g clip-path="url(#7ad2cb5ca2)"><g clip-path="url(#01fdd15483)"><rect x="-1100" width="2160" fill="#ebebeb" height="2159.999904" y="-1339.999985" fill-opacity="1"/></g></g></g></g></g></g><g clip-path="url(#8b1ac1b562)"><g clip-path="url(#33e115089a)"><g transform="matrix(1, 0, 0, 1, 48, 106)"><g clip-path="url(#9aac5f878e)"><g clip-path="url(#f55ef59ead)"><g clip-path="url(#7d51824cea)"><rect x="-378" width="2160" fill="#ebebeb" height="2159.999904" y="-435.999985" fill-opacity="1"/></g></g></g></g></g></g><g clip-path="url(#89672c6393)"><g clip-path="url(#f48a523c5b)"><g transform="matrix(1, 0, 0, 1, 692, 774)"><g clip-path="url(#0061bc856d)"><g clip-path="url(#932cfe1868)"><g clip-path="url(#6c3dd1e94f)"><rect x="-1022" width="2160" fill="#ebebeb" height="2159.999904" y="-1103.999985" fill-opacity="1"/></g></g></g></g></g></g></svg>