<?xml version="1.0" encoding="UTF-8" standalone="no"?>
<!-- Created with Inkscape (http://www.inkscape.org/) -->

<svg
   version="1.1"
   id="svg1"
   width="1066.1169"
   height="1066.6609"
   viewBox="0 0 1066.1169 1066.6608"
   xmlns="http://www.w3.org/2000/svg"
   xmlns:svg="http://www.w3.org/2000/svg">
  <defs
     id="defs1" />
  <g
     id="g1"
     transform="translate(-1.7890625,-1.1241901)">
    <g
       id="group-R5"
       transform="translate(1.7890837,1.188924)">
      <rect
         style="vector-effect:non-scaling-stroke;fill:#cc0000;fill-opacity:1;stroke-width:2.11288;-inkscape-stroke:hairline;paint-order:fill markers stroke"
         id="rect395"
         width="1066.0886"
         height="1066.1316"
         x="0.028387731"
         y="-0.064733878" />
      <path
         id="path5"
         style="fill:#6e0303;fill-opacity:1;fill-rule:nonzero;stroke:none;stroke-width:0.266518"
         d="M 40.464823,5.29125e-4 C 38.526436,3.1161276 36.694319,6.3143142 35.007791,9.6138104 43.595543,11.769943 51.947678,14.794827 59.976541,18.547404 63.67235,11.831144 68.03338,5.6427208 72.915994,5.29125e-4 Z m 43.302734,0 C 77.309553,6.4449408 71.667003,13.821043 67.095682,22.059123 74.807121,26.203482 82.10413,31.110554 88.935526,36.627482 98.403321,18.328338 115.09445,5.1736487 134.60545,5.29125e-4 Z m 87.970703,0 C 191.24713,5.1736487 207.9387,18.32905 217.40623,36.625529 224.25041,31.095275 231.55692,26.180044 239.27342,22.035685 234.70104,13.808266 229.0583,6.4369452 222.60349,5.29125e-4 Z m 61.7207,0 C 238.33864,5.6347253 242.69675,11.814461 246.39256,18.52006 c 8.03526,-3.752577 16.37968,-6.780125 24.94531,-8.9335934 -1.6844,-3.2888354 -3.51004,-6.4783345 -5.44336,-9.585937475 z m 113.35157,0 C 344.87028,3.1161276 343.0386,6.3143142 341.35154,9.6138104 c 8.58988,2.1561326 16.94317,5.1810166 24.9707,8.9335936 3.69661,-6.71626 8.05685,-12.9046832 12.93946,-18.546874875 z m 43.30273,0 C 383.65552,6.4449408 378.01022,13.821043 373.43943,22.059123 c 7.71038,4.144359 15.00827,9.051431 21.8418,14.568359 9.46673,-18.299144 26.15811,-31.4538333 45.66992,-36.626952875 z m 87.9707,0 C 497.5931,5.1736487 514.2852,18.32905 523.75193,36.625529 530.59612,31.095275 537.90146,26.180044 545.61717,22.035685 541.04638,13.808266 535.40232,6.4369452 528.94724,5.29125e-4 Z m 61.71875,0 C 544.68266,5.6347253 549.04165,11.814461 552.73826,18.52006 c 8.03553,-3.752577 16.37746,-6.780125 24.94336,-8.9335934 -1.68173,-3.2888354 -3.5111,-6.4783345 -5.44336,-9.585937475 z m 113.35157,0 C 651.21669,3.1161276 649.38164,6.3143142 647.69724,9.6138104 c 8.58722,2.1561326 16.94122,5.1810166 24.96875,8.9335936 3.69661,-6.71626 8.05685,-12.9046832 12.93946,-18.546874875 z m 43.30273,0 C 689.99927,6.4449408 684.35592,13.821043 679.78514,22.059123 c 7.71037,4.144359 15.00631,9.051431 21.83984,14.568359 9.46673,-18.299144 26.16007,-31.4538333 45.67187,-36.626952875 z m 87.9707,0 C 803.93685,5.1736487 820.62825,18.32905 830.09764,36.625529 836.93917,31.095275 844.24717,26.180044 851.96287,22.035685 847.38942,13.808266 841.74803,6.4369452 835.29295,5.29125e-4 Z m 61.72071,0 C 851.02837,5.6347253 855.38541,11.814461 859.08201,18.52006 c 8.03553,-3.752577 16.38013,-6.780125 24.94336,-8.9335934 -1.68173,-3.2888354 -3.51111,-6.4783345 -5.44336,-9.585937475 z m 113.34961,0 C 957.56044,3.1161276 955.73001,6.3143142 954.04295,9.6138104 c 8.58722,2.1561326 16.93926,5.1810166 24.96679,8.9335936 3.69661,-6.71626 8.05684,-12.9046832 12.93946,-18.546874875 z m 43.30277,0 C 996.34305,6.4449408 990.69968,13.821043 986.12889,22.059123 c 7.71304,4.144359 15.00901,9.051431 21.83981,14.568359 9.4667,-18.299144 26.1601,-31.4538333 45.6719,-36.626952875 z M 153.17185,5.5493572 c -24.81632,0 -47.26573,14.1979948 -57.96484,36.4042968 4.82212,4.432199 9.9348,9.807591 14.51758,14.628906 1.93439,2.0362 4.10188,4.314223 5.9707,6.201172 3.33548,-17.662165 18.87118,-31.060547 37.47656,-31.060547 18.6083,0 34.14703,13.385076 37.4961,31.03125 1.87602,-1.89228 4.05326,-4.181127 5.99804,-6.222656 4.57452,-4.805325 9.67551,-10.164582 14.47071,-14.578125 C 200.43652,19.747352 177.99029,5.5493572 153.17185,5.5493572 Z m 306.34571,0 c -24.81818,0 -47.26681,14.1979948 -57.96485,36.4042968 4.82132,4.432199 9.93347,9.807591 14.51758,14.628906 1.93492,2.0362 4.10046,4.314223 5.96875,6.201172 3.33681,-17.662165 18.87288,-31.060547 37.47852,-31.060547 18.6083,0 34.14596,13.385076 37.49609,31.03125 1.87629,-1.89228 4.05317,-4.181127 5.99609,-6.222656 4.57345,-4.805325 9.67799,-10.164582 14.47266,-14.578125 C 506.78169,19.747352 484.33574,5.5493572 459.51756,5.5493572 Z m 306.34375,0 c -24.81818,0 -47.26414,14.1979948 -57.96485,36.4042968 4.82398,4.432199 9.93347,9.807591 14.51758,14.628906 1.93493,2.0362 4.10046,4.314223 5.96875,6.201172 3.33681,-17.662165 18.87288,-31.060547 37.47852,-31.060547 18.60831,0 34.14595,13.385076 37.49609,31.03125 1.87628,-1.89228 4.05513,-4.181127 5.99805,-6.222656 4.57611,-4.805325 9.67603,-10.164582 14.4707,-14.578125 C 813.12544,19.747352 790.67949,5.5493572 765.86131,5.5493572 Z m 300.21089,0.328125 c -22.3316,2.1268158 -42.0215,15.7168418 -51.832,36.0761718 4.824,4.432199 9.9362,9.807591 14.5176,14.628906 1.935,2.0362 4.1017,4.314223 5.9726,6.201172 2.961,-15.676604 15.5399,-27.973732 31.3418,-30.542969 z M -2.12e-5,13.326701 v 26.171875 c 39.0990292,0 74.4340972,21.049745 93.2207032,55.134766 C 101.25568,90.8781 109.60028,87.853215 118.16404,85.699748 95.599541,41.572318 49.753609,13.326701 -2.12e-5,13.326701 Z m 306.3437512,0 c -49.74643,0 -95.5921,28.255729 -118.16406,72.396484 8.58908,2.158798 16.94077,5.183682 24.9707,8.933594 18.76661,-34.101013 54.0898,-55.158203 93.19336,-55.158203 39.1009,0 74.43382,21.049745 93.2207,55.134766 8.03552,-3.755242 16.38013,-6.780127 24.94336,-8.933594 C 401.94435,41.572318 356.09736,13.326701 306.34373,13.326701 Z m 306.34375,0 c -49.74563,0 -95.59067,28.255729 -118.16211,72.396484 8.58722,2.158798 16.93855,5.183682 24.96875,8.933594 18.76555,-34.101013 54.09247,-55.158203 93.19336,-55.158203 39.1009,0 74.43649,21.049745 93.2207,55.134766 8.03552,-3.755242 16.38013,-6.780127 24.94336,-8.933594 C 708.2881,41.572318 662.44111,13.326701 612.68748,13.326701 Z m 306.3457,0 c -49.74563,0 -95.59262,28.255729 -118.16406,72.396484 8.58722,2.158798 16.93856,5.183682 24.96875,8.933594 18.76555,-34.101013 54.09442,-55.158203 93.19531,-55.158203 z m 0.002,0 v 26.171875 c 39.09823,0 74.43386,21.049745 93.22062,55.134766 8.0329,-3.755242 16.3775,-6.780127 24.9434,-8.933594 C 1014.6331,41.572318 968.78877,13.326701 919.03514,13.326701 Z M -2.12e-5,47.492717 v 26.169921 c 27.2024532,0 51.8692602,15.175523 64.2343752,39.074222 6.843922,-5.53292 14.150417,-10.44744 21.867187,-14.5918 C 68.680841,66.797181 36.046575,47.492717 -2.12e-5,47.492717 Z m 306.3437512,0 c -36.04659,0 -68.67333,19.317242 -86.07617,50.675781 7.71117,4.144362 15.00818,9.051432 21.83984,14.568362 12.36511,-23.898699 37.03281,-39.071557 64.23633,-39.074222 27.20352,0 51.86989,15.175523 64.23633,39.074222 6.84419,-5.53292 14.14953,-10.44744 21.86523,-14.5918 C 375.02566,66.797181 342.39033,47.492717 306.34373,47.492717 Z m 306.34375,0 c -36.04659,0 -68.67324,19.317242 -86.07422,50.675781 7.71038,4.144362 15.00703,9.051432 21.83789,14.568362 12.36645,-23.898699 37.03281,-39.071557 64.23633,-39.074222 27.20352,0 51.87255,15.175523 64.23633,39.074222 6.84419,-5.53292 14.14953,-10.44744 21.86523,-14.5918 C 681.36941,66.797181 648.73408,47.492717 612.68748,47.492717 Z m 306.3457,0 c -36.04659,0 -68.67252,19.317242 -86.07617,50.675781 7.71038,4.144362 15.00898,9.051432 21.83984,14.568362 12.36645,-23.898699 37.03281,-39.071557 64.23633,-39.074222 z m 0.002,0 v 26.169921 c 27.20085,0 51.86863,15.175523 64.23242,39.074222 6.84418,-5.53292 14.14949,-10.44744 21.8652,-14.5918 C 987.71312,66.797181 955.07907,47.492717 919.03514,47.492717 Z M -2.12e-5,81.658732 v 26.173828 c 18.6083852,0 34.1478252,13.38436 37.4960942,31.0332 1.876822,-1.89495 4.053262,-4.18112 5.998046,-6.22265 4.573453,-4.80533 9.674441,-10.16459 14.470704,-14.57813 C 47.264647,95.856012 24.818453,81.658732 -2.12e-5,81.658732 Z m 306.3437512,0 c -24.81551,0.0027 -47.2644,14.197997 -57.96484,36.404298 4.82345,4.43487 9.93586,9.81026 14.51757,14.62891 1.93546,2.0362 4.10436,4.31813 5.97266,6.20507 3.33414,-17.66216 18.86897,-31.06445 37.47461,-31.06445 18.60831,0 34.14862,13.38436 37.49609,31.0332 1.87628,-1.89495 4.05442,-4.18112 6,-6.22265 4.57346,-4.80533 9.67409,-10.16459 14.46875,-14.57813 C 353.61053,95.856012 331.16191,81.658732 306.34373,81.658732 Z m 306.34375,0 c -24.81551,0.0027 -47.26413,14.197997 -57.96484,36.404298 4.82398,4.43487 9.93613,9.81026 14.51757,14.62891 1.93493,2.0362 4.10437,4.31813 5.97266,6.20507 3.33414,-17.66216 18.86897,-31.06445 37.47461,-31.06445 18.60831,0 34.15058,13.38436 37.49805,31.0332 1.87629,-1.89495 4.05246,-4.18112 5.99804,-6.22265 4.57346,-4.80533 9.67409,-10.16459 14.46875,-14.57813 C 659.95428,95.856012 637.50566,81.658732 612.68748,81.658732 Z m 306.3457,0 c -24.81551,0.0027 -47.26485,14.197997 -57.96289,36.404298 4.82132,4.43487 9.93222,9.81026 14.51367,14.62891 1.93492,2.0362 4.10437,4.31813 5.97266,6.20507 3.33681,-17.66216 18.87359,-31.06445 37.47656,-31.06445 z m 0.002,0 v 26.173828 c 18.6083,0 34.14667,13.38436 37.49414,31.0332 1.87895,-1.89495 4.05246,-4.18112 5.99804,-6.22265 4.57346,-4.80533 9.67533,-10.16459 14.47266,-14.57813 -10.70075,-22.208968 -33.1467,-36.406248 -57.96488,-36.406248 z m -765.86329,7.777344 c -49.74617,0 -95.593426,28.255724 -118.164059,72.396484 8.587752,2.15879 16.939887,5.18298 24.96875,8.93555 18.766617,-34.10101 54.093079,-55.16016 93.195309,-55.16016 39.10009,0 74.43544,21.05242 93.22071,55.13477 8.03526,-3.75524 16.37968,-6.78013 24.94531,-8.9336 -22.5661,-44.12743 -68.41239,-72.373044 -118.16602,-72.373044 z m 306.34571,0 c -49.7483,0 -95.59459,28.255724 -118.16602,72.396484 8.58988,2.15879 16.94317,5.18298 24.9707,8.93555 18.76822,-34.10101 54.09176,-55.16016 93.19532,-55.16016 39.09823,0 74.43383,21.05242 93.2207,55.13477 8.03553,-3.75524 16.37746,-6.78013 24.94336,-8.9336 C 555.11556,117.68169 509.27123,89.436076 459.5176,89.436076 Z m 306.34375,0 c -49.7483,0 -95.5953,28.255724 -118.16407,72.396484 8.58722,2.15879 16.94122,5.18298 24.96875,8.93555 18.76822,-34.10101 54.09176,-55.16016 93.19532,-55.16016 39.09823,0 74.43383,21.05242 93.2207,55.13477 8.03553,-3.75524 16.38013,-6.78013 24.94336,-8.9336 -22.56348,-44.12743 -68.41047,-72.373044 -118.1641,-72.373044 z m 300.21085,0.162109 c -47.355,2.214767 -90.39059,29.916605 -112.02921,72.234375 8.58722,2.15879 16.93926,5.18298 24.96679,8.93555 17.77944,-32.30734 50.42682,-52.87624 87.06242,-54.95508 z M 153.17185,123.60404 c -36.04767,0 -68.672259,19.31654 -86.076168,50.67774 7.711439,4.1417 15.008448,9.04752 21.839844,14.56445 12.364044,-23.89603 37.032804,-39.07031 64.236324,-39.07031 27.20245,0 51.86953,15.17162 64.23438,39.07031 6.84418,-5.53026 14.15069,-10.44476 21.86719,-14.59179 -17.42043,-31.34521 -50.05498,-50.6504 -86.10157,-50.6504 z m 306.34571,0 c -36.04926,0 -68.67448,19.31654 -86.07813,50.67774 7.71038,4.1417 15.00827,9.04752 21.8418,14.56445 12.36378,-23.89603 37.03281,-39.07031 64.23633,-39.07031 27.20085,0 51.87058,15.17162 64.23437,39.07031 6.84419,-5.53026 14.14953,-10.44476 21.86524,-14.59179 -17.41964,-31.34521 -50.05302,-50.6504 -86.09961,-50.6504 z m 306.34375,0 c -36.0466,0 -68.67253,19.31654 -86.07617,50.67774 7.71037,4.1417 15.00631,9.04752 21.83984,14.56445 12.36378,-23.89603 37.03281,-39.07031 64.23633,-39.07031 27.20352,0 51.86989,15.17162 64.23633,39.07031 6.84153,-5.53026 14.14953,-10.44476 21.86523,-14.59179 -17.41963,-31.34521 -50.05496,-50.6504 -86.10156,-50.6504 z m 300.21089,0.20508 c -33.5867,2.05752 -63.5338,20.90246 -79.94331,50.47266 7.71304,4.1417 15.00901,9.04752 21.83981,14.56445 11.4283,-22.08637 33.3679,-36.69103 58.1035,-38.7832 z m -912.90035,33.96094 c -24.81632,0 -47.26573,14.19604 -57.96484,36.40234 4.82212,4.43487 9.9348,9.80954 14.51758,14.63086 1.93439,2.0362 4.10188,4.31618 5.9707,6.20313 3.33548,-17.66217 18.87118,-31.0625 37.47656,-31.0625 18.6083,0 34.14703,13.38436 37.4961,31.0332 1.87602,-1.89495 4.05326,-4.18308 5.99804,-6.22461 4.57452,-4.80533 9.67551,-10.16458 14.47071,-14.57812 -10.70018,-22.20897 -33.14641,-36.4043 -57.96485,-36.4043 z m 306.34571,0 c -24.81818,0 -47.26681,14.19604 -57.96485,36.40234 4.82132,4.43487 9.93347,9.80954 14.51758,14.63086 1.93492,2.0362 4.10046,4.31618 5.96875,6.20313 3.33681,-17.66217 18.87288,-31.0625 37.47852,-31.0625 18.6083,0 34.14596,13.38436 37.49609,31.0332 1.87629,-1.89495 4.05317,-4.18308 5.99609,-6.22461 4.57345,-4.80533 9.67799,-10.16458 14.47266,-14.57812 -10.70071,-22.20897 -33.14666,-36.4043 -57.96484,-36.4043 z m 306.34375,0 c -24.81818,0 -47.26414,14.19604 -57.96485,36.40234 4.82398,4.43487 9.93347,9.80954 14.51758,14.63086 1.93493,2.0362 4.10046,4.31618 5.96875,6.20313 3.33681,-17.66217 18.87288,-31.0625 37.47852,-31.0625 18.60831,0 34.14595,13.38436 37.49609,31.0332 1.87628,-1.89495 4.05513,-4.18308 5.99805,-6.22461 4.57611,-4.80533 9.67603,-10.16458 14.4707,-14.57812 -10.70071,-22.20897 -33.14666,-36.4043 -57.96484,-36.4043 z m 300.21089,0.32813 c -22.3316,2.12681 -42.0215,15.71488 -51.832,36.07421 4.824,4.43487 9.9362,9.80954 14.5176,14.63086 1.935,2.0362 4.1017,4.31618 5.9726,6.20313 2.961,-15.67927 15.5399,-27.97373 31.3418,-30.54297 z M -2.12e-5,165.5474 v 26.17188 c 39.0990292,0 74.4340972,21.05046 93.2207032,55.13281 8.034998,-3.75257 16.379598,-6.77818 24.943358,-8.93164 C 95.599541,193.79302 49.753609,165.5474 -2.12e-5,165.5474 Z m 306.3437512,0 c -49.74643,0 -95.5921,28.25769 -118.16406,72.39844 8.58908,2.1588 16.94077,5.18102 24.9707,8.9336 18.76661,-34.10102 54.0898,-55.16016 93.19336,-55.16016 39.1009,0 74.43382,21.05046 93.2207,55.13281 8.03552,-3.75257 16.38013,-6.77818 24.94336,-8.93164 C 401.94435,193.79302 356.09736,165.5474 306.34373,165.5474 Z m 306.34375,0 c -49.74563,0 -95.59067,28.25769 -118.16211,72.39844 8.58722,2.1588 16.93855,5.18102 24.96875,8.9336 18.76555,-34.10102 54.09247,-55.16016 93.19336,-55.16016 39.1009,0 74.43649,21.05046 93.2207,55.13281 8.03552,-3.75257 16.38013,-6.77818 24.94336,-8.93164 C 708.2881,193.79302 662.44111,165.5474 612.68748,165.5474 Z m 306.3457,0 c -49.74563,0 -95.59262,28.25769 -118.16406,72.39844 8.58722,2.1588 16.93856,5.18102 24.96875,8.9336 18.76555,-34.10102 54.09442,-55.16016 93.19531,-55.16016 z m 0.002,0 v 26.17188 c 39.09823,0 74.43386,21.05046 93.22062,55.13281 8.0329,-3.75257 16.3775,-6.77818 24.9434,-8.93164 C 1014.6331,193.79302 968.78877,165.5474 919.03514,165.5474 Z M -2.12e-5,199.71537 v 26.16992 c 27.2024532,0 51.8692602,15.17429 64.2343752,39.07032 6.843922,-5.53025 14.150417,-10.44353 21.867187,-14.58789 C 68.680841,219.01984 36.046575,199.71537 -2.12e-5,199.71537 Z m 306.3437512,0 c -36.04659,0 -68.67333,19.31724 -86.07617,50.67578 7.71117,4.14436 15.00818,9.05144 21.83984,14.56836 12.36511,-23.89869 37.03281,-39.07422 64.23633,-39.07422 27.20352,0 51.86989,15.17429 64.23633,39.07032 6.84419,-5.53025 14.14953,-10.44353 21.86523,-14.58789 -17.41963,-31.34788 -50.05496,-50.65235 -86.10156,-50.65235 z m 306.34375,0 c -36.04659,0 -68.67324,19.31724 -86.07422,50.67578 7.71038,4.14436 15.00703,9.05144 21.83789,14.56836 12.36645,-23.89869 37.03281,-39.07422 64.23633,-39.07422 27.20352,0 51.87255,15.17429 64.23633,39.07032 6.84419,-5.53025 14.14953,-10.44353 21.86523,-14.58789 -17.41963,-31.34788 -50.05496,-50.65235 -86.10156,-50.65235 z m 306.3457,0 c -36.04659,0 -68.67252,19.31724 -86.07617,50.67578 7.71038,4.14436 15.00898,9.05144 21.83984,14.56836 12.36645,-23.89869 37.03281,-39.07422 64.23633,-39.07422 z m 0.002,0 v 26.16992 c 27.20085,0 51.86863,15.17429 64.23242,39.07032 6.84418,-5.53025 14.14949,-10.44353 21.8652,-14.58789 -17.41964,-31.34788 -50.05369,-50.65235 -86.09762,-50.65235 z M -2.12e-5,233.88139 v 26.17383 c 18.6083852,0 34.1478252,13.38508 37.4960942,31.03125 1.876822,-1.89228 4.053262,-4.18308 5.998046,-6.22461 4.573453,-4.80266 9.674441,-10.16334 14.470704,-14.57422 C 47.264647,248.07601 24.818453,233.88139 -2.12e-5,233.88139 Z m 306.3437512,0 c -24.81551,0 -47.2644,14.19337 -57.96484,36.40234 4.82345,4.43486 9.93586,9.81026 14.51757,14.62891 1.93546,2.0362 4.10436,4.31617 5.97266,6.20312 3.33414,-17.6595 18.86897,-31.06054 37.47461,-31.06054 18.60831,0 34.14862,13.38508 37.49609,31.03125 1.87628,-1.89228 4.05442,-4.18308 6,-6.22461 4.57346,-4.80266 9.67409,-10.16334 14.46875,-14.57422 -10.69804,-22.21163 -33.14666,-36.40625 -57.96484,-36.40625 z m 306.34375,0 c -24.81551,0 -47.26413,14.19337 -57.96484,36.40234 4.82398,4.43486 9.93613,9.81026 14.51757,14.62891 1.93493,2.0362 4.10437,4.31617 5.97266,6.20312 3.33414,-17.6595 18.86897,-31.06054 37.47461,-31.06054 18.60831,0 34.15058,13.38508 37.49805,31.03125 1.87629,-1.89228 4.05246,-4.18308 5.99804,-6.22461 4.57346,-4.80266 9.67409,-10.16334 14.46875,-14.57422 -10.69804,-22.21163 -33.14666,-36.40625 -57.96484,-36.40625 z m 306.3457,0 c -24.81551,0 -47.26485,14.19337 -57.96289,36.40234 4.82132,4.43486 9.93222,9.81026 14.51367,14.62891 1.93492,2.0362 4.10437,4.31617 5.97266,6.20312 3.33681,-17.6595 18.87359,-31.06054 37.47656,-31.06054 z m 0.002,0 v 26.17383 c 18.6083,0 34.14667,13.38508 37.49414,31.03125 1.87895,-1.89228 4.05246,-4.18308 5.99804,-6.22461 4.57346,-4.80266 9.67533,-10.16334 14.47266,-14.57422 -10.70071,-22.21163 -33.14666,-36.40625 -57.96484,-36.40625 z m -765.86329,7.77539 c -46.02851,0 -88.703592,24.20664 -112.707027,62.78516 -1.938387,3.11826 -3.770504,6.31645 -5.457032,9.61328 8.587752,2.1588 16.939887,5.18367 24.96875,8.93359 3.695809,-6.7136 8.056839,-12.90201 12.939453,-18.54687 19.910781,-23.00852 48.854666,-36.61329 80.255856,-36.61329 31.40651,0 60.3638,13.60477 80.28711,36.61329 4.87968,5.63686 9.23779,11.81588 12.9336,18.52148 8.03526,-3.75524 16.37968,-6.78012 24.94531,-8.93359 -1.6844,-3.28884 -3.51004,-6.47762 -5.44336,-9.58789 -23.99597,-38.57852 -66.67844,-62.78516 -112.72266,-62.78516 z m 306.34571,0 c -46.03037,0 -88.7044,24.20664 -112.70703,62.78516 -1.94025,3.11826 -3.77193,6.31645 -5.45899,9.61328 8.58988,2.1588 16.94317,5.18367 24.9707,8.93359 3.69661,-6.7136 8.05685,-12.90201 12.93946,-18.54687 19.90892,-23.00852 48.85468,-36.61329 80.25586,-36.61329 31.40651,0 60.36291,13.60477 80.28515,36.61329 4.87995,5.63686 9.23894,11.81588 12.93555,18.52148 8.03553,-3.75524 16.37746,-6.78012 24.94336,-8.93359 -1.68173,-3.28884 -3.5111,-6.47762 -5.44336,-9.58789 -23.99463,-38.57852 -66.67701,-62.78516 -112.7207,-62.78516 z m 306.34375,0 c -46.03037,0 -88.70439,24.20664 -112.70703,62.78516 -1.93759,3.11826 -3.77264,6.31645 -5.45704,9.61328 8.58722,2.1588 16.94122,5.18367 24.96875,8.93359 3.69661,-6.7136 8.05685,-12.90201 12.93946,-18.54687 19.91158,-23.00852 48.85468,-36.61329 80.25586,-36.61329 31.40651,0 60.36487,13.60477 80.28711,36.61329 4.87995,5.63686 9.23699,11.81588 12.93359,18.52148 8.03553,-3.75524 16.38013,-6.78012 24.94336,-8.93359 -1.68173,-3.28884 -3.51111,-6.47762 -5.44336,-9.58789 -23.99464,-38.57852 -66.677,-62.78516 -112.7207,-62.78516 z m 300.21085,0.20312 c -43.6584,2.04419 -83.6429,25.72523 -106.57413,62.58204 -1.93759,3.11826 -3.76802,6.31645 -5.45508,9.61328 8.58722,2.1588 16.93926,5.18367 24.96679,8.93359 3.69661,-6.7136 8.05684,-12.90201 12.93946,-18.54687 18.60826,-21.50269 45.10446,-34.78457 74.12296,-36.43165 z m -912.90031,33.96485 c -26.57907,0 -51.27599,10.53126 -69.404293,28.61719 -6.458004,6.44441 -12.100554,13.82442 -16.671875,22.0625 7.711439,4.1417 15.008448,9.04752 21.839844,14.56445 9.467795,-18.29915 26.158924,-31.45383 45.669924,-36.62695 h 0.002 c 5.96841,-1.58045 12.19199,-2.44532 18.56445,-2.44532 6.37351,0 12.59605,0.86487 18.56446,2.44532 h 0.002 c 19.50887,5.17579 36.20044,18.3278 45.66797,36.62695 6.84418,-5.53292 14.15069,-10.44477 21.86719,-14.5918 -4.57238,-8.22742 -10.21512,-15.59607 -16.66993,-22.03515 -18.1387,-18.08859 -42.84538,-28.61719 -69.43164,-28.61719 z m 306.34571,0 c -26.57987,0 -51.27573,10.53126 -69.4043,28.61719 -6.45774,6.44441 -12.10304,13.82442 -16.67383,22.0625 7.71038,4.1417 15.00827,9.04752 21.8418,14.56445 9.46673,-18.29915 26.15811,-31.45383 45.66992,-36.62695 5.97001,-1.58045 12.19396,-2.44532 18.56641,-2.44532 6.37245,0 12.59515,0.86487 18.5625,2.44532 h 0.004 c 19.50914,5.17579 36.20124,18.3278 45.66797,36.62695 6.84419,-5.53292 14.14953,-10.44477 21.86524,-14.5918 -4.57079,-8.22742 -10.21485,-15.59607 -16.66993,-22.03515 -18.13657,-18.08859 -42.84448,-28.61719 -69.42968,-28.61719 z m 306.34375,0 c -26.57987,0 -51.27573,10.53126 -69.4043,28.61719 -6.45774,6.44441 -12.10109,13.82442 -16.67187,22.0625 7.71037,4.1417 15.00631,9.04752 21.83984,14.56445 9.46673,-18.29915 26.16007,-31.45383 45.67187,-36.62695 5.97001,-1.58045 12.19201,-2.44532 18.56446,-2.44532 6.37245,0 12.59515,0.86487 18.5625,2.44532 h 0.004 c 19.50914,5.17579 36.20054,18.3278 45.66993,36.62695 6.84153,-5.53292 14.14953,-10.44477 21.86523,-14.5918 -4.57345,-8.22742 -10.21484,-15.59607 -16.66992,-22.03515 -18.13656,-18.08859 -42.84644,-28.61719 -69.43164,-28.61719 z m 300.21085,0.21094 c -24.2265,1.48718 -46.5473,11.71954 -63.2714,28.40625 -6.45771,6.44441 -12.10108,13.82442 -16.67187,22.0625 7.71304,4.1417 15.00897,9.04752 21.83977,14.56445 9.4667,-18.29915 26.1601,-31.45383 45.6719,-36.62695 4.0377,-1.06874 8.1966,-1.7787 12.4316,-2.14649 z m -912.90031,33.95703 c -24.81632,0 -47.26573,14.19409 -57.96484,36.40039 4.82212,4.43486 9.9348,9.81221 14.51758,14.63086 1.93439,2.0362 4.10188,4.31617 5.9707,6.20312 3.33548,-17.66216 18.87118,-31.0625 37.47656,-31.0625 18.6083,0 34.14703,13.38436 37.4961,31.0332 1.87602,-1.89495 4.05326,-4.18112 5.99804,-6.22265 4.57452,-4.80533 9.67551,-10.16459 14.47071,-14.57813 -10.70018,-22.20897 -33.14641,-36.40429 -57.96485,-36.40429 z m 306.34571,0 c -24.81818,0 -47.26681,14.19409 -57.96485,36.40039 4.82132,4.43486 9.93347,9.81221 14.51758,14.63086 1.93492,2.0362 4.10046,4.31617 5.96875,6.20312 3.33681,-17.66216 18.87288,-31.0625 37.47852,-31.0625 18.6083,0 34.14596,13.38436 37.49609,31.0332 1.87629,-1.89495 4.05317,-4.18112 5.99609,-6.22265 4.57345,-4.80533 9.67799,-10.16459 14.47266,-14.57813 -10.70071,-22.20897 -33.14666,-36.40429 -57.96484,-36.40429 z m 306.34375,0 c -24.81818,0 -47.26414,14.19409 -57.96485,36.40039 4.82398,4.43486 9.93347,9.81221 14.51758,14.63086 1.93493,2.0362 4.10046,4.31617 5.96875,6.20312 3.33681,-17.66216 18.87288,-31.0625 37.47852,-31.0625 18.60831,0 34.14595,13.38436 37.49609,31.0332 1.87628,-1.89495 4.05513,-4.18112 5.99805,-6.22265 4.57611,-4.80533 9.67603,-10.16459 14.4707,-14.57813 -10.70071,-22.20897 -33.14666,-36.40429 -57.96484,-36.40429 z m 300.21085,0.32617 c -22.3316,2.12681 -42.0215,15.71489 -51.832,36.07422 4.824,4.43486 9.9362,9.81221 14.5176,14.63086 1.935,2.0362 4.1017,4.31617 5.9726,6.20312 2.961,-15.67927 15.5399,-27.97302 31.3418,-30.54492 z M -2.12e-5,317.76615 v 26.17383 c 39.0990292,0 74.4340972,21.05242 93.2207032,55.13477 8.034998,-3.75258 16.379598,-6.77942 24.943358,-8.93555 C 95.599542,346.01444 49.753609,317.76615 -2.12e-5,317.76615 Z m 306.3437512,0 c -49.74643,0.003 -95.5921,28.25964 -118.16406,72.40039 8.58908,2.15613 16.94077,5.18103 24.9707,8.9336 18.76661,-34.10101 54.0898,-55.16016 93.19336,-55.16016 39.1009,0 74.43382,21.05242 93.2207,55.13477 8.03552,-3.75258 16.38013,-6.77942 24.94336,-8.93555 -22.56344,-44.12476 -68.41043,-72.37305 -118.16406,-72.37305 z m 306.34375,0 c -49.74563,0.003 -95.59067,28.25964 -118.16211,72.40039 8.58722,2.15613 16.93855,5.18103 24.96875,8.9336 18.76555,-34.10101 54.09247,-55.16016 93.19336,-55.16016 39.1009,0 74.43649,21.05242 93.2207,55.13477 8.03552,-3.75258 16.38013,-6.77942 24.94336,-8.93555 -22.56344,-44.12476 -68.41043,-72.37305 -118.16406,-72.37305 z m 306.3457,0 c -49.74563,0.003 -95.59262,28.25964 -118.16406,72.40039 8.58722,2.15613 16.93856,5.18103 24.96875,8.9336 18.76555,-34.10101 54.09442,-55.16016 93.19531,-55.16016 z m 0.002,0 v 26.17383 c 39.09823,0 74.43386,21.05242 93.22062,55.13477 8.0329,-3.75258 16.3775,-6.77942 24.9434,-8.93555 -22.5661,-44.12476 -68.41039,-72.37305 -118.16402,-72.37305 z M -2.12e-5,351.93412 V 378.106 c 27.2024532,0 51.8692602,15.17623 64.2343752,39.07226 6.843922,-5.53026 14.150417,-10.44548 21.867187,-14.58984 -17.4207,-31.34788 -50.054966,-50.6543 -86.1015622,-50.6543 z m 306.3437512,0 c -36.04659,0 -68.67333,19.31849 -86.07617,50.67969 7.71117,4.1417 15.00818,9.04682 21.83984,14.56641 12.36511,-23.89869 37.03281,-39.07422 64.23633,-39.07422 27.20352,0 51.86989,15.17623 64.23633,39.07226 6.84419,-5.53026 14.14953,-10.44548 21.86523,-14.58984 -17.41963,-31.34788 -50.05496,-50.6543 -86.10156,-50.6543 z m 306.34375,0 c -36.04659,0 -68.67324,19.31849 -86.07422,50.67969 7.71038,4.1417 15.00703,9.04682 21.83789,14.56641 12.36645,-23.89869 37.03281,-39.07422 64.23633,-39.07422 27.20352,0 51.87255,15.17623 64.23633,39.07226 6.84419,-5.53026 14.14953,-10.44548 21.86523,-14.58984 -17.41963,-31.34788 -50.05496,-50.6543 -86.10156,-50.6543 z m 306.3457,0 c -36.04659,0 -68.67252,19.31849 -86.07617,50.67969 7.71038,4.1417 15.00898,9.04682 21.83984,14.56641 12.36645,-23.89869 37.03281,-39.07422 64.23633,-39.07422 z m 0.002,0 V 378.106 c 27.20085,0 51.86863,15.17623 64.23242,39.07226 6.84418,-5.53026 14.14949,-10.44548 21.8652,-14.58984 -17.41964,-31.34788 -50.05369,-50.6543 -86.09762,-50.6543 z M -2.12e-5,386.10209 v 26.17188 c 18.6083852,0 34.1478252,13.38436 37.4960942,31.0332 1.876822,-1.89228 4.053262,-4.18113 5.998046,-6.22266 4.573453,-4.80533 9.674441,-10.16458 14.470704,-14.57812 -10.700176,-22.20897 -33.14637,-36.4043 -57.9648442,-36.4043 z m 306.3437512,0 c -24.81551,0 -47.2644,14.19605 -57.96484,36.40235 4.82345,4.43487 9.93586,9.80953 14.51757,14.63085 1.93546,2.03619 4.10436,4.31423 5.97266,6.20118 3.33414,-17.66217 18.86897,-31.05983 37.47461,-31.0625 18.60831,0 34.14862,13.38436 37.49609,31.0332 1.87628,-1.89228 4.05442,-4.18113 6,-6.22266 4.57346,-4.80533 9.67409,-10.16458 14.46875,-14.57812 -10.69804,-22.20897 -33.14666,-36.4043 -57.96484,-36.4043 z m 306.34375,0 c -24.81551,0 -47.26413,14.19605 -57.96484,36.40235 4.82398,4.43487 9.93613,9.80953 14.51757,14.63085 1.93493,2.03619 4.10437,4.31423 5.97266,6.20118 3.33414,-17.66217 18.86897,-31.05983 37.47461,-31.0625 18.60831,0 34.15058,13.38436 37.49805,31.0332 1.87629,-1.89228 4.05246,-4.18113 5.99804,-6.22266 4.57346,-4.80533 9.67409,-10.16458 14.46875,-14.57812 -10.69804,-22.20897 -33.14666,-36.4043 -57.96484,-36.4043 z m 306.3457,0 c -24.81551,0 -47.26485,14.19605 -57.96289,36.40235 4.82132,4.43487 9.93222,9.80953 14.51367,14.63085 1.93492,2.03619 4.10437,4.31423 5.97266,6.20118 3.33681,-17.66217 18.87359,-31.05983 37.47656,-31.0625 z m 0.002,0 v 26.17188 c 18.6083,0 34.14667,13.38436 37.49414,31.0332 1.87895,-1.89228 4.05246,-4.18113 5.99804,-6.22266 4.57346,-4.80533 9.67533,-10.16458 14.47266,-14.57812 -10.70071,-22.20897 -33.14666,-36.4043 -57.96484,-36.4043 z m -765.86329,7.77735 c -49.74617,0 -95.593426,28.25573 -118.164059,72.39648 8.587752,2.1588 16.939887,5.18368 24.96875,8.93359 18.766617,-34.09834 54.093079,-55.1582 93.195309,-55.1582 39.10009,0 74.43544,21.04975 93.22071,55.13477 8.03526,-3.75524 16.37968,-6.78014 24.94531,-8.9336 -22.5661,-44.12743 -68.41239,-72.37304 -118.16602,-72.37304 z m 306.34571,0 c -49.7483,0 -95.59459,28.25573 -118.16602,72.39648 8.58988,2.1588 16.94317,5.18368 24.9707,8.93359 18.76822,-34.09834 54.09176,-55.1582 93.19532,-55.1582 39.09823,0 74.43383,21.04975 93.2207,55.13477 8.03553,-3.75524 16.37746,-6.78014 24.94336,-8.9336 -22.5661,-44.12743 -68.41043,-72.37304 -118.16406,-72.37304 z m 306.34375,0 c -49.7483,0 -95.5953,28.25573 -118.16407,72.39648 8.58722,2.1588 16.94122,5.18368 24.96875,8.93359 18.76822,-34.09834 54.09176,-55.1582 93.19532,-55.1582 39.09823,0 74.43383,21.04975 93.2207,55.13477 8.03553,-3.75524 16.38013,-6.78014 24.94336,-8.9336 -22.56344,-44.12743 -68.41043,-72.37304 -118.16406,-72.37304 z m 300.21085,0.16015 c -47.355,2.21743 -90.39059,29.9159 -112.02921,72.23633 8.58722,2.1588 16.93926,5.18368 24.96679,8.93359 17.77944,-32.30467 50.42682,-52.87427 87.06242,-54.95312 z M 153.17185,428.0474 c -36.04767,0 -68.672259,19.31725 -86.076168,50.67579 7.711439,4.14435 15.008448,9.05143 21.839844,14.56835 12.364044,-23.89869 37.032804,-39.07226 64.236324,-39.07226 27.20245,0 51.86953,15.17357 64.23438,39.07226 6.84418,-5.53292 14.15069,-10.44743 21.86719,-14.59179 -17.42043,-31.34788 -50.05498,-50.65235 -86.10157,-50.65235 z m 306.34571,0 c -36.04926,0 -68.67448,19.31725 -86.07813,50.67579 7.71038,4.14435 15.00827,9.05143 21.8418,14.56835 12.36378,-23.89869 37.03281,-39.07226 64.23633,-39.07226 27.20085,0 51.87058,15.17357 64.23437,39.07226 6.84419,-5.53292 14.14953,-10.44743 21.86524,-14.59179 -17.41964,-31.34788 -50.05302,-50.65235 -86.09961,-50.65235 z m 306.34375,0 c -36.0466,0 -68.67253,19.31725 -86.07617,50.67579 7.71037,4.14435 15.00631,9.05143 21.83984,14.56835 12.36378,-23.89869 37.03281,-39.07226 64.23633,-39.07226 27.20352,0 51.86989,15.17357 64.23633,39.07226 6.84153,-5.53292 14.14953,-10.44743 21.86523,-14.59179 -17.41963,-31.34788 -50.05496,-50.65235 -86.10156,-50.65235 z m 300.21089,0.20508 c -33.5867,2.05486 -63.5338,20.9005 -79.94331,50.47071 7.71304,4.14435 15.00901,9.05143 21.83981,14.56835 11.4283,-22.08636 33.3679,-36.69493 58.1035,-38.7871 z m -912.90035,33.96289 c -24.81632,0 -47.26573,14.19409 -57.96484,36.40039 4.82212,4.43486 9.9348,9.81026 14.51758,14.62891 1.93439,2.0362 4.10188,4.31813 5.9707,6.20508 3.33548,-17.66216 18.87118,-31.0625 37.47656,-31.0625 18.6083,0 34.14703,13.38312 37.4961,31.02929 1.87602,-1.89228 4.05326,-4.17846 5.99804,-6.22265 4.57452,-4.80266 9.67551,-10.16529 14.47071,-14.57617 -10.70018,-22.20896 -33.14641,-36.40235 -57.96485,-36.40235 z m 306.34571,0 c -24.81818,0 -47.26681,14.19409 -57.96485,36.40039 4.82132,4.43486 9.93347,9.81026 14.51758,14.62891 1.93492,2.0362 4.10046,4.31813 5.96875,6.20508 3.33681,-17.66216 18.87288,-31.0625 37.47852,-31.0625 18.6083,0 34.14596,13.38312 37.49609,31.02929 1.87629,-1.89228 4.05317,-4.17846 5.99609,-6.22265 4.57345,-4.80266 9.67799,-10.16529 14.47266,-14.57617 -10.70071,-22.20896 -33.14666,-36.40235 -57.96484,-36.40235 z m 306.34375,0 c -24.81818,0 -47.26414,14.19409 -57.96485,36.40039 4.82398,4.43486 9.93347,9.81026 14.51758,14.62891 1.93493,2.0362 4.10046,4.31813 5.96875,6.20508 3.33681,-17.66216 18.87288,-31.0625 37.47852,-31.0625 18.60831,0 34.14595,13.38312 37.49609,31.02929 1.87628,-1.89228 4.05513,-4.17846 5.99805,-6.22265 4.57611,-4.80266 9.67603,-10.16529 14.4707,-14.57617 -10.70071,-22.20896 -33.14666,-36.40235 -57.96484,-36.40235 z m 300.21089,0.32422 c -22.3316,2.12681 -42.0215,15.71684 -51.832,36.07617 4.824,4.43486 9.9362,9.81026 14.5176,14.62891 1.935,2.0362 4.1017,4.31813 5.9726,6.20508 2.961,-15.67927 15.5399,-27.97764 31.3418,-30.54688 z M -2.12e-5,469.98881 v 26.17188 c 39.0990292,0 74.4340972,21.0524 93.2207032,55.13476 8.034998,-3.75524 16.379598,-6.78013 24.943358,-8.93359 C 95.599541,498.23443 49.753609,469.98881 -2.12e-5,469.98881 Z m 306.3437512,0 c -49.74643,0 -95.5921,28.25573 -118.16406,72.39648 8.58908,2.1588 16.94077,5.18492 24.9707,8.9375 18.76661,-34.10101 54.0898,-55.1621 93.19336,-55.1621 39.1009,0 74.43382,21.0524 93.2207,55.13476 8.03552,-3.75524 16.38013,-6.78013 24.94336,-8.93359 -22.56344,-44.12743 -68.41043,-72.37305 -118.16406,-72.37305 z m 306.34375,0 c -49.74563,0 -95.59067,28.25573 -118.16211,72.39648 8.58722,2.1588 16.93855,5.18492 24.96875,8.9375 18.76555,-34.10101 54.09247,-55.1621 93.19336,-55.1621 39.1009,0 74.43649,21.0524 93.2207,55.13476 8.03552,-3.75524 16.38013,-6.78013 24.94336,-8.93359 -22.56344,-44.12743 -68.41043,-72.37305 -118.16406,-72.37305 z m 306.3457,0 c -49.74563,0 -95.59262,28.25573 -118.16406,72.39648 8.58722,2.1588 16.93856,5.18492 24.96875,8.9375 18.76555,-34.10101 54.09442,-55.1621 93.19531,-55.1621 z m 0.002,0 v 26.17188 c 39.09823,0 74.43386,21.0524 93.22062,55.13476 8.0329,-3.75524 16.3775,-6.78013 24.9434,-8.93359 -22.5661,-44.12743 -68.41039,-72.37305 -118.16402,-72.37305 z M -2.12e-5,504.15678 v 26.17187 c 27.2024532,0 51.8692602,15.17357 64.2343752,39.07227 6.843922,-5.53026 14.150417,-10.44478 21.867187,-14.5918 C 68.680841,523.46391 36.046575,504.15678 -2.12e-5,504.15678 Z m 306.3437512,0 c -36.04659,0 -68.67333,19.31653 -86.07617,50.67773 7.71117,4.1417 15.00818,9.04948 21.83984,14.56641 12.36511,-23.8987 37.03281,-39.07227 64.23633,-39.07227 27.20352,0 51.86989,15.17357 64.23633,39.07227 6.84419,-5.53026 14.14953,-10.44478 21.86523,-14.5918 -17.41963,-31.34521 -50.05496,-50.65234 -86.10156,-50.65234 z m 306.34375,0 c -36.04659,0 -68.67324,19.31653 -86.07422,50.67773 7.71038,4.1417 15.00703,9.04948 21.83789,14.56641 12.36645,-23.8987 37.03281,-39.07227 64.23633,-39.07227 27.20352,0 51.87255,15.17357 64.23633,39.07227 6.84419,-5.53026 14.14953,-10.44478 21.86523,-14.5918 -17.41963,-31.34521 -50.05496,-50.65234 -86.10156,-50.65234 z m 306.3457,0 c -36.04659,0 -68.67252,19.31653 -86.07617,50.67773 7.71038,4.1417 15.00898,9.04948 21.83984,14.56641 12.36645,-23.8987 37.03281,-39.07227 64.23633,-39.07227 z m 0.002,0 v 26.17187 c 27.20085,0 51.86863,15.17357 64.23242,39.07227 6.84418,-5.53026 14.14949,-10.44478 21.8652,-14.5918 -17.41964,-31.34521 -50.05369,-50.65234 -86.09762,-50.65234 z M -2.12e-5,538.32475 v 26.17187 c 18.6083852,0 34.1478252,13.38437 37.4960942,31.03321 1.876822,-1.89495 4.053262,-4.18113 5.998046,-6.22266 4.573453,-4.80532 9.674441,-10.16654 14.470704,-14.58008 C 47.264647,552.51812 24.818453,538.32475 -2.12e-5,538.32475 Z m 306.3437512,0 c -24.81551,0 -47.2644,14.19409 -57.96484,36.40039 4.82345,4.43486 9.93586,9.81025 14.51757,14.6289 1.93546,2.03886 4.10436,4.31813 5.97266,6.20508 3.33414,-17.66216 18.86897,-31.0625 37.47461,-31.0625 18.60831,0 34.14862,13.38437 37.49609,31.03321 1.87628,-1.89495 4.05442,-4.18113 6,-6.22266 4.57346,-4.80532 9.67409,-10.16654 14.46875,-14.58008 -10.69804,-22.20897 -33.14666,-36.40234 -57.96484,-36.40234 z m 306.34375,0 c -24.81551,0 -47.26413,14.19409 -57.96484,36.40039 4.82398,4.43486 9.93613,9.81025 14.51757,14.6289 1.93493,2.03886 4.10437,4.31813 5.97266,6.20508 3.33414,-17.66216 18.86897,-31.0625 37.47461,-31.0625 18.60831,0 34.15058,13.38437 37.49805,31.03321 1.87629,-1.89495 4.05246,-4.18113 5.99804,-6.22266 4.57346,-4.80532 9.67409,-10.16654 14.46875,-14.58008 -10.69804,-22.20897 -33.14666,-36.40234 -57.96484,-36.40234 z m 306.3457,0 c -24.81551,0 -47.26485,14.19409 -57.96289,36.40039 4.82132,4.43486 9.93222,9.81025 14.51367,14.6289 1.93492,2.03886 4.10437,4.31813 5.97266,6.20508 3.33681,-17.66216 18.87359,-31.0625 37.47656,-31.0625 z m 0.002,0 v 26.17187 c 18.6083,0 34.14667,13.38437 37.49414,31.03321 1.87895,-1.89495 4.05246,-4.18113 5.99804,-6.22266 4.57346,-4.80532 9.67533,-10.16654 14.47266,-14.58008 -10.70071,-22.20897 -33.14666,-36.40234 -57.96484,-36.40234 z m -765.86329,7.77734 c -46.02851,0 -88.703592,24.20201 -112.707027,62.7832 -1.938387,3.11559 -3.770504,6.31379 -5.457032,9.61329 8.587752,2.15613 16.939887,5.18102 24.96875,8.93359 3.695809,-6.71626 8.056839,-12.90469 12.939453,-18.54688 19.910781,-23.00853 48.854666,-36.61523 80.255856,-36.61523 31.40651,0 60.3638,13.6067 80.28711,36.61523 4.87968,5.63686 9.23779,11.81394 12.9336,18.51954 8.03526,-3.75258 16.37968,-6.77747 24.94531,-8.9336 -1.6844,-3.28884 -3.51004,-6.47834 -5.44336,-9.58594 -23.99597,-38.58119 -66.67844,-62.7832 -112.72266,-62.7832 z m 306.34571,0 c -46.03037,0 -88.7044,24.20201 -112.70703,62.7832 -1.94025,3.11559 -3.77193,6.31379 -5.45899,9.61329 8.58988,2.15613 16.94317,5.18102 24.9707,8.93359 3.69661,-6.71626 8.05685,-12.90469 12.93946,-18.54688 19.90892,-23.00853 48.85468,-36.61523 80.25586,-36.61523 31.40651,0 60.36291,13.6067 80.28515,36.61523 4.87995,5.63686 9.23894,11.81394 12.93555,18.51954 8.03553,-3.75258 16.37746,-6.77747 24.94336,-8.9336 -1.68173,-3.28884 -3.5111,-6.47834 -5.44336,-9.58594 -23.99463,-38.58119 -66.67701,-62.7832 -112.7207,-62.7832 z m 306.34375,0 c -46.03037,0 -88.70439,24.20201 -112.70703,62.7832 -1.93759,3.11559 -3.77264,6.31379 -5.45704,9.61329 8.58722,2.15613 16.94122,5.18102 24.96875,8.93359 3.69661,-6.71626 8.05685,-12.90469 12.93946,-18.54688 19.91158,-23.00853 48.85468,-36.61523 80.25586,-36.61523 31.40651,0 60.36487,13.6067 80.28711,36.61523 4.87995,5.63686 9.23699,11.81394 12.93359,18.51954 8.03553,-3.75258 16.38013,-6.77747 24.94336,-8.9336 -1.68173,-3.28884 -3.51111,-6.47834 -5.44336,-9.58594 -23.99464,-38.58119 -66.677,-62.7832 -112.7207,-62.7832 z m 300.21085,0.19922 c -43.6584,2.04686 -83.6429,25.7245 -106.57413,62.58398 -1.93759,3.11559 -3.76802,6.31379 -5.45508,9.61329 8.58722,2.15613 16.93926,5.18102 24.96679,8.93359 3.69661,-6.71626 8.05684,-12.90469 12.93946,-18.54688 18.60826,-21.5027 45.10446,-34.78384 74.12296,-36.43359 z m -912.90031,33.96484 c -26.57907,0 -51.27599,10.53054 -69.404293,28.61914 -6.458004,6.44441 -12.100554,13.82319 -16.671875,22.0586 7.711439,4.14436 15.008448,9.04877 21.839844,14.56836 9.467795,-18.29914 26.158924,-31.45384 45.669924,-36.62696 h 0.002 c 5.96841,-1.58312 12.19199,-2.44726 18.56445,-2.44726 6.37351,0 12.59605,0.86414 18.56446,2.44726 h 0.002 c 19.50887,5.17312 36.20044,18.32585 45.66797,36.625 6.84418,-5.53026 14.15069,-10.44548 21.86719,-14.58984 -4.57238,-8.22742 -10.21512,-15.59875 -16.66993,-22.03516 -18.1387,-18.0886 -42.84538,-28.61914 -69.43164,-28.61914 z m 306.34571,0 c -26.57987,0 -51.27573,10.53054 -69.4043,28.61914 -6.45774,6.44441 -12.10304,13.82319 -16.67383,22.0586 7.71038,4.14436 15.00827,9.04877 21.8418,14.56836 9.46673,-18.29914 26.15811,-31.45384 45.66992,-36.62696 5.97001,-1.58312 12.19396,-2.44726 18.56641,-2.44726 6.37245,0 12.59515,0.86414 18.5625,2.44726 h 0.004 c 19.50914,5.17312 36.20124,18.32585 45.66797,36.625 6.84419,-5.53026 14.14953,-10.44548 21.86524,-14.58984 -4.57079,-8.22742 -10.21485,-15.59875 -16.66993,-22.03516 -18.13657,-18.0886 -42.84448,-28.61914 -69.42968,-28.61914 z m 306.34375,0 c -26.57987,0 -51.27573,10.53054 -69.4043,28.61914 -6.45774,6.44441 -12.10109,13.82319 -16.67187,22.0586 7.71037,4.14436 15.00631,9.04877 21.83984,14.56836 9.46673,-18.29914 26.16007,-31.45384 45.67187,-36.62696 5.97001,-1.58312 12.19201,-2.44726 18.56446,-2.44726 6.37245,0 12.59515,0.86414 18.5625,2.44726 h 0.004 c 19.50914,5.17312 36.20054,18.32585 45.66993,36.625 6.84153,-5.53026 14.14953,-10.44548 21.86523,-14.58984 -4.57345,-8.22742 -10.21484,-15.59875 -16.66992,-22.03516 -18.13656,-18.0886 -42.84644,-28.61914 -69.43164,-28.61914 z m 300.21085,0.21094 c -24.2265,1.48718 -46.5473,11.72149 -63.2714,28.4082 -6.45771,6.44441 -12.10108,13.82319 -16.67187,22.0586 7.71304,4.14436 15.00897,9.04877 21.83977,14.56836 9.4667,-18.29914 26.1601,-31.45384 45.6719,-36.62696 4.0377,-1.07141 8.1966,-1.78064 12.4316,-2.14843 z m -912.90031,33.95703 c -24.81632,0 -47.26573,14.19409 -57.96484,36.40039 4.82212,4.43753 9.9348,9.81417 14.51758,14.63282 1.93439,2.0362 4.10188,4.31423 5.9707,6.20117 3.33548,-17.66216 18.87118,-31.06055 37.47656,-31.06055 18.6083,0 34.14703,13.38507 37.4961,31.03125 1.87602,-1.89228 4.05326,-4.18113 5.99804,-6.22266 4.57452,-4.80533 9.67551,-10.16458 14.47071,-14.57812 -10.70018,-22.20897 -33.14641,-36.4043 -57.96485,-36.4043 z m 306.34571,0 c -24.81818,0 -47.26681,14.19409 -57.96485,36.40039 4.82132,4.43753 9.93347,9.81417 14.51758,14.63282 1.93492,2.0362 4.10046,4.31423 5.96875,6.20117 3.33681,-17.66216 18.87288,-31.06055 37.47852,-31.06055 18.6083,0 34.14596,13.38507 37.49609,31.03125 1.87629,-1.89228 4.05317,-4.18113 5.99609,-6.22266 4.57345,-4.80533 9.67799,-10.16458 14.47266,-14.57812 -10.70071,-22.20897 -33.14666,-36.4043 -57.96484,-36.4043 z m 306.34375,0 c -24.81818,0 -47.26414,14.19409 -57.96485,36.40039 4.82398,4.43753 9.93347,9.81417 14.51758,14.63282 1.93493,2.0362 4.10046,4.31423 5.96875,6.20117 3.33681,-17.66216 18.87288,-31.06055 37.47852,-31.06055 18.60831,0 34.14595,13.38507 37.49609,31.03125 1.87628,-1.89228 4.05513,-4.18113 5.99805,-6.22266 4.57611,-4.80533 9.67603,-10.16458 14.4707,-14.57812 -10.70071,-22.20897 -33.14666,-36.4043 -57.96484,-36.4043 z m 300.21085,0.32813 c -22.3316,2.12682 -42.0215,15.7156 -51.832,36.07226 4.824,4.43753 9.9362,9.81417 14.5176,14.63282 1.935,2.0362 4.1017,4.31423 5.9726,6.20117 2.961,-15.6766 15.5399,-27.97373 31.3418,-30.54297 z M -2.12e-5,622.21147 v 26.17187 c 39.0990292,0 74.4340972,21.04975 93.2207032,55.13477 8.034998,-3.75525 16.379598,-6.78014 24.943358,-8.9336 C 95.599541,650.45708 49.753609,622.21147 -2.12e-5,622.21147 Z m 306.3437512,0 c -49.74643,0 -95.5921,28.25573 -118.16406,72.39648 8.58908,2.1588 16.94077,5.18368 24.9707,8.93359 18.76661,-34.09834 54.0898,-55.1582 93.19336,-55.1582 39.1009,0 74.43382,21.04975 93.2207,55.13477 8.03552,-3.75525 16.38013,-6.78014 24.94336,-8.9336 -22.56344,-44.12743 -68.41043,-72.37304 -118.16406,-72.37304 z m 306.34375,0 c -49.74563,0 -95.59067,28.25573 -118.16211,72.39648 8.58722,2.1588 16.93855,5.18368 24.96875,8.93359 18.76555,-34.09834 54.09247,-55.1582 93.19336,-55.1582 39.1009,0 74.43649,21.04975 93.2207,55.13477 8.03552,-3.75525 16.38013,-6.78014 24.94336,-8.9336 -22.56344,-44.12743 -68.41043,-72.37304 -118.16406,-72.37304 z m 306.3457,0 c -49.74563,0 -95.59262,28.25573 -118.16406,72.39648 8.58722,2.1588 16.93856,5.18368 24.96875,8.93359 18.76555,-34.09834 54.09442,-55.1582 93.19531,-55.1582 z m 0.002,0 v 26.17187 c 39.09823,0 74.43386,21.04975 93.22062,55.13477 8.0329,-3.75525 16.3775,-6.78014 24.9434,-8.9336 -22.5661,-44.12743 -68.41039,-72.37304 -118.16402,-72.37304 z M -2.12e-5,656.37944 v 26.17187 c 27.2024532,0 51.8692602,15.17162 64.2343752,39.07031 6.843922,-5.53292 14.150417,-10.44743 21.867187,-14.59179 C 68.680841,675.68195 36.046575,656.37944 -2.12e-5,656.37944 Z m 306.3437512,0 c -36.04659,0 -68.67333,19.31725 -86.07617,50.67578 7.71117,4.14436 15.00818,9.04948 21.83984,14.5664 12.36511,-23.89869 37.03281,-39.07031 64.23633,-39.07031 27.20352,0 51.86989,15.17162 64.23633,39.07031 6.84419,-5.53292 14.14953,-10.44743 21.86523,-14.59179 -17.41963,-31.34788 -50.05496,-50.65039 -86.10156,-50.65039 z m 306.34375,0 c -36.04659,0 -68.67324,19.31725 -86.07422,50.67578 7.71038,4.14436 15.00703,9.04948 21.83789,14.5664 12.36645,-23.89869 37.03281,-39.07031 64.23633,-39.07031 27.20352,0 51.87255,15.17162 64.23633,39.07031 6.84419,-5.53292 14.14953,-10.44743 21.86523,-14.59179 -17.41963,-31.34788 -50.05496,-50.65039 -86.10156,-50.65039 z m 306.3457,0 c -36.04659,0 -68.67252,19.31725 -86.07617,50.67578 7.71038,4.14436 15.00898,9.04948 21.83984,14.5664 12.36645,-23.89869 37.03281,-39.07031 64.23633,-39.07031 z m 0.002,0 v 26.17187 c 27.20085,0 51.86863,15.17162 64.23242,39.07031 6.84418,-5.53292 14.14949,-10.44743 21.8652,-14.59179 -17.41964,-31.34788 -50.05369,-50.65039 -86.09762,-50.65039 z M -2.12e-5,690.54545 v 26.17383 c 18.6083852,0 34.1478252,13.38436 37.4960942,31.0332 1.876822,-1.89494 4.053262,-4.18308 5.998046,-6.22461 4.573453,-4.80532 9.674441,-10.16457 14.470704,-14.57812 -10.700176,-22.20896 -33.14637,-36.4043 -57.9648442,-36.4043 z m 306.3437512,0 c -24.81551,0 -47.2644,14.19604 -57.96484,36.40234 4.82345,4.43486 9.93586,9.81026 14.51757,14.62891 1.93546,2.0362 4.10436,4.31813 5.97266,6.20508 3.33414,-17.66216 18.86897,-31.0625 37.47461,-31.0625 18.60831,0 34.14862,13.38436 37.49609,31.0332 1.87628,-1.89494 4.05442,-4.18308 6,-6.22461 4.57346,-4.80532 9.67409,-10.16457 14.46875,-14.57812 -10.69804,-22.20896 -33.14666,-36.4043 -57.96484,-36.4043 z m 306.34375,0 c -24.81551,0 -47.26413,14.19604 -57.96484,36.40234 4.82398,4.43486 9.93613,9.81026 14.51757,14.62891 1.93493,2.0362 4.10437,4.31813 5.97266,6.20508 3.33414,-17.66216 18.86897,-31.0625 37.47461,-31.0625 18.60831,0 34.15058,13.38436 37.49805,31.0332 1.87629,-1.89494 4.05246,-4.18308 5.99804,-6.22461 4.57346,-4.80532 9.67409,-10.16457 14.46875,-14.57812 -10.69804,-22.20896 -33.14666,-36.4043 -57.96484,-36.4043 z m 306.3457,0 c -24.81551,0 -47.26485,14.19604 -57.96289,36.40234 4.82132,4.43486 9.93222,9.81026 14.51367,14.62891 1.93492,2.0362 4.10437,4.31813 5.97266,6.20508 3.33681,-17.66216 18.87359,-31.0625 37.47656,-31.0625 z m 0.002,0 v 26.17383 c 18.6083,0 34.14667,13.38436 37.49414,31.0332 1.87895,-1.89494 4.05246,-4.18308 5.99804,-6.22461 4.57346,-4.80532 9.67533,-10.16457 14.47266,-14.57812 -10.70071,-22.20896 -33.14666,-36.4043 -57.96484,-36.4043 z m -765.86329,7.77539 c -49.74617,0 -95.593426,28.25574 -118.164059,72.39649 8.587752,2.1588 16.939887,5.18492 24.96875,8.9375 18.766617,-34.10101 54.093079,-55.16211 93.195309,-55.16211 39.10009,0 74.43544,21.0524 93.22071,55.13476 8.03526,-3.75524 16.37968,-6.78013 24.94531,-8.93359 -22.5661,-44.12477 -68.41239,-72.37305 -118.16602,-72.37305 z m 306.34571,0 c -49.7483,0 -95.59459,28.25574 -118.16602,72.39649 8.58988,2.1588 16.94317,5.18492 24.9707,8.9375 18.76822,-34.10101 54.09176,-55.16211 93.19532,-55.16211 39.09823,0 74.43383,21.0524 93.2207,55.13476 8.03553,-3.75524 16.37746,-6.78013 24.94336,-8.93359 -22.5661,-44.12477 -68.41043,-72.37305 -118.16406,-72.37305 z m 306.34375,0 c -49.7483,0 -95.59459,28.25574 -118.16602,72.39649 8.58988,2.1588 16.94317,5.18492 24.9707,8.9375 18.76822,-34.10101 54.09176,-55.16211 93.19532,-55.16211 39.09823,0 74.43383,21.0524 93.2207,55.13476 8.03553,-3.75524 16.38013,-6.78013 24.94336,-8.93359 -22.56344,-44.12477 -68.41043,-72.37305 -118.16406,-72.37305 z m 300.21085,0.16211 c -47.355,2.21476 -90.39059,29.91661 -112.02921,72.23438 8.58722,2.1588 16.93926,5.18492 24.96679,8.9375 17.7821,-32.30734 50.42682,-52.87819 87.06242,-54.95704 z m -912.90031,34.00586 c -36.04767,0 -68.672259,19.31653 -86.076168,50.67773 7.711439,4.1417 15.008448,9.04877 21.839844,14.56836 12.364044,-23.90136 37.032804,-39.07421 64.236324,-39.07421 27.20245,0 51.86953,15.17162 64.23438,39.07031 6.84418,-5.53025 14.15069,-10.44353 21.86719,-14.58789 -17.42043,-31.34787 -50.05498,-50.6543 -86.10157,-50.6543 z m 306.34571,0 c -36.04926,0 -68.67448,19.31653 -86.07813,50.67773 7.71038,4.1417 15.00827,9.04877 21.8418,14.56836 12.36378,-23.90136 37.03281,-39.07421 64.23633,-39.07421 27.20085,0 51.87058,15.17162 64.23437,39.07031 6.84419,-5.53025 14.14953,-10.44353 21.86524,-14.58789 -17.41964,-31.34787 -50.05302,-50.6543 -86.09961,-50.6543 z m 306.34375,0 c -36.0466,0 -68.67253,19.31653 -86.07617,50.67773 7.71037,4.1417 15.00631,9.04877 21.83984,14.56836 12.36378,-23.90136 37.03281,-39.07421 64.23633,-39.07421 27.20352,0 51.87059,15.17162 64.23437,39.07031 6.84685,-5.53025 14.14882,-10.44353 21.86719,-14.58789 -17.41963,-31.34787 -50.05496,-50.6543 -86.10156,-50.6543 z m 300.21085,0.20508 c -33.5867,2.05752 -63.5338,20.90245 -79.94327,50.47265 7.71304,4.1417 15.00897,9.04877 21.83977,14.56836 11.4257,-22.08903 33.3679,-36.69495 58.1035,-38.78711 z m -912.90031,33.96289 c -24.81632,0 -47.26573,14.19409 -57.96484,36.40039 4.82212,4.43486 9.9348,9.81026 14.51758,14.62891 1.93439,2.03886 4.10188,4.31812 5.9707,6.20507 3.33548,-17.66216 18.87118,-31.0625 37.47656,-31.0625 18.6083,0 34.14703,13.38437 37.4961,31.03321 1.87602,-1.89495 4.05326,-4.18308 5.99804,-6.22461 4.57452,-4.80532 9.67551,-10.16458 14.47071,-14.57813 -10.70018,-22.20896 -33.14641,-36.40234 -57.96485,-36.40234 z m 306.34571,0 c -24.81818,0 -47.26681,14.19409 -57.96485,36.40039 4.82132,4.43486 9.93347,9.81026 14.51758,14.62891 1.93492,2.03886 4.10046,4.31812 5.96875,6.20507 3.33681,-17.66216 18.87288,-31.0625 37.47852,-31.0625 18.6083,0 34.14596,13.38437 37.49609,31.03321 1.87629,-1.89495 4.05317,-4.18308 5.99609,-6.22461 4.57345,-4.80532 9.67799,-10.16458 14.47266,-14.57813 -10.70071,-22.20896 -33.14666,-36.40234 -57.96484,-36.40234 z m 306.34375,0 c -24.81818,0 -47.26414,14.19409 -57.96485,36.40039 4.82398,4.43486 9.93613,9.80955 14.51758,14.63086 1.93493,2.0362 4.1017,4.31617 5.97266,6.20312 3.33414,-17.66216 18.86897,-31.0625 37.47461,-31.0625 18.60831,0 34.14862,13.38437 37.49609,31.03321 1.87628,-1.89495 4.05513,-4.18308 5.99805,-6.22461 4.57611,-4.80532 9.67603,-10.16458 14.4707,-14.57813 -10.70071,-22.20896 -33.14666,-36.40234 -57.96484,-36.40234 z m 300.21085,0.32617 c -22.3316,2.12682 -42.0215,15.71755 -51.832,36.07422 4.824,4.43486 9.9362,9.80955 14.5176,14.63086 1.935,2.0362 4.1017,4.31617 5.9726,6.20312 2.961,-15.6766 15.5399,-27.97372 31.3418,-30.54296 z M -2.12e-5,774.43217 v 26.17187 c 39.0990292,0 74.4340972,21.05046 93.2207032,55.13282 8.034998,-3.75258 16.379598,-6.77817 24.943358,-8.93164 C 95.599541,802.67779 49.753609,774.43217 -2.12e-5,774.43217 Z m 306.3437512,0 c -49.74643,0 -95.5921,28.25768 -118.16406,72.39844 8.58908,2.1588 16.94077,5.18101 24.9707,8.93359 18.76661,-34.10101 54.0898,-55.16016 93.19336,-55.16016 39.1009,0 74.43382,21.05046 93.2207,55.13282 8.03552,-3.75258 16.38013,-6.77817 24.94336,-8.93164 -22.56344,-44.12743 -68.41043,-72.37305 -118.16406,-72.37305 z m 306.34375,0 c -49.74563,0 -95.59067,28.25768 -118.16211,72.39844 8.58722,2.1588 16.93855,5.18101 24.96875,8.93359 18.76555,-34.10101 54.09247,-55.16016 93.19336,-55.16016 39.1009,0 74.43649,21.05046 93.2207,55.13282 8.03552,-3.75258 16.38013,-6.77817 24.94336,-8.93164 -22.56344,-44.12743 -68.41043,-72.37305 -118.16406,-72.37305 z m 306.3457,0 c -49.74563,0 -95.59262,28.25768 -118.16406,72.39844 8.58722,2.1588 16.93856,5.18101 24.96875,8.93359 18.76555,-34.10101 54.09442,-55.15945 93.19531,-55.16211 z m 0.002,0 v 26.16992 c 39.09823,0 74.43386,21.05169 93.22062,55.13672 8.0329,-3.75525 16.3763,-6.78012 24.9395,-8.93359 -22.5634,-44.12743 -68.40916,-72.37305 -118.16012,-72.37305 z M -2.12e-5,808.60014 v 26.16992 c 27.2024532,0 51.8692602,15.17553 64.2343752,39.07422 6.843922,-5.53292 14.150417,-10.44744 21.867187,-14.5918 C 68.680841,827.9046 36.046575,808.60014 -2.12e-5,808.60014 Z m 306.3437512,0 c -36.04659,0 -68.67333,19.31724 -86.07617,50.67578 7.71117,4.14436 15.00818,9.05143 21.83984,14.56836 12.36511,-23.89869 37.03281,-39.07156 64.23633,-39.07422 27.20352,0 51.86989,15.17553 64.23633,39.07422 6.84419,-5.53292 14.14953,-10.44744 21.86523,-14.5918 -17.41963,-31.34788 -50.05496,-50.65234 -86.10156,-50.65234 z m 306.34375,0 c -36.04659,0 -68.67324,19.31724 -86.07422,50.67578 7.71038,4.14436 15.00703,9.05143 21.83789,14.56836 12.36645,-23.89869 37.03281,-39.07156 64.23633,-39.07422 27.20352,0 51.87255,15.17553 64.23633,39.07422 6.84419,-5.53292 14.14953,-10.44744 21.86523,-14.5918 -17.41963,-31.34788 -50.05496,-50.65234 -86.10156,-50.65234 z m 306.3457,0 c -36.04659,0 -68.67252,19.31724 -86.07617,50.67578 7.71038,4.14436 15.00898,9.05143 21.83984,14.56836 12.36645,-23.89869 37.03281,-39.07422 64.23633,-39.07422 z m 0.002,0 v 26.16992 c 27.20085,0 51.86863,15.17553 64.23242,39.07422 6.84418,-5.53292 14.14949,-10.44744 21.8652,-14.5918 -17.41964,-31.34788 -50.05369,-50.65234 -86.09762,-50.65234 z M -2.12e-5,842.76615 v 26.17383 c 18.6083852,0 34.1478252,13.38507 37.4960942,31.03125 1.876822,-1.89228 4.053262,-4.18112 5.998046,-6.22265 4.573453,-4.80266 9.674441,-10.1653 14.470704,-14.57618 C 47.264647,856.96343 24.818453,842.76615 -2.12e-5,842.76615 Z m 306.3437512,0 c -24.81551,0.003 -47.2644,14.19604 -57.96484,36.40235 4.82345,4.43486 9.93586,9.81025 14.51757,14.6289 1.93546,2.0362 4.10436,4.31618 5.97266,6.20313 3.33414,-17.6595 18.86897,-31.06055 37.47461,-31.06055 18.60831,0 34.14862,13.38507 37.49609,31.03125 1.87628,-1.89228 4.05442,-4.18112 6,-6.22265 4.57346,-4.80266 9.67409,-10.1653 14.46875,-14.57618 -10.69804,-22.20897 -33.14666,-36.40625 -57.96484,-36.40625 z m 306.34375,0 c -24.81551,0.003 -47.26413,14.19604 -57.96484,36.40235 4.82398,4.43486 9.93613,9.81025 14.51757,14.6289 1.93493,2.0362 4.10437,4.31618 5.97266,6.20313 3.33414,-17.6595 18.86897,-31.06055 37.47461,-31.06055 18.60831,0 34.15058,13.38507 37.49805,31.03125 1.87629,-1.89228 4.05246,-4.18112 5.99804,-6.22265 4.57346,-4.80266 9.67409,-10.1653 14.46875,-14.57618 -10.69804,-22.20897 -33.14666,-36.40625 -57.96484,-36.40625 z m 306.3457,0 c -24.81551,0.003 -47.26485,14.19604 -57.96289,36.40235 4.82132,4.43486 9.93222,9.81025 14.51367,14.6289 1.93492,2.0362 4.10437,4.31618 5.97266,6.20313 3.33681,-17.6595 18.87092,-31.06055 37.47656,-31.06055 z m 0.002,0 v 26.17383 c 18.6083,0 34.14667,13.38507 37.49414,31.03125 1.87895,-1.89228 4.05246,-4.18112 5.99804,-6.22265 4.57346,-4.80266 9.67533,-10.1653 14.47266,-14.57618 -10.70071,-22.20897 -33.14666,-36.40625 -57.96484,-36.40625 z m -765.86329,7.77539 c -46.02851,0 -88.703592,24.20397 -112.707027,62.78516 -1.938387,3.11826 -3.770504,6.31645 -5.457032,9.61328 8.587752,2.1588 16.939887,5.18369 24.96875,8.9336 3.695809,-6.71359 8.056839,-12.90203 12.939453,-18.54688 19.910781,-23.00852 48.854666,-36.61133 80.255856,-36.61133 31.40651,0 60.3638,13.60281 80.28711,36.61133 4.87968,5.63686 9.23779,11.81784 12.9336,18.52344 8.03526,-3.75525 16.37968,-6.78208 24.94531,-8.93555 -1.6844,-3.28883 -3.51004,-6.47762 -5.44336,-9.58789 -23.99597,-38.58119 -66.67844,-62.78516 -112.72266,-62.78516 z m 306.34571,0 c -46.03037,0 -88.7044,24.20397 -112.70703,62.78516 -1.94025,3.11826 -3.77193,6.31645 -5.45899,9.61328 8.58988,2.1588 16.94317,5.18369 24.9707,8.9336 3.69661,-6.71359 8.05685,-12.90203 12.93946,-18.54688 19.90892,-23.00852 48.85468,-36.61133 80.25586,-36.61133 31.40651,0 60.36291,13.60281 80.28515,36.61133 4.87995,5.63686 9.23894,11.81784 12.93555,18.52344 8.03553,-3.75525 16.37746,-6.78208 24.94336,-8.93555 -1.68173,-3.28883 -3.5111,-6.47762 -5.44336,-9.58789 -23.99463,-38.58119 -66.67701,-62.78516 -112.7207,-62.78516 z m 306.34375,0 c -46.03037,0 -88.70439,24.20397 -112.70703,62.78516 -1.93759,3.11826 -3.77264,6.31645 -5.45704,9.61328 8.58722,2.1588 16.94122,5.18369 24.96875,8.9336 3.69661,-6.71359 8.05685,-12.90203 12.93946,-18.54688 19.90892,-23.00852 48.85468,-36.61133 80.25586,-36.61133 31.40651,0 60.36487,13.60281 80.28711,36.61133 4.87995,5.63686 9.23699,11.81784 12.93359,18.52344 8.03553,-3.75525 16.38013,-6.78208 24.94336,-8.93555 -1.68173,-3.2915 -3.51111,-6.47762 -5.44336,-9.58789 -23.99464,-38.58119 -66.677,-62.78516 -112.7207,-62.78516 z m 300.21085,0.20118 c -43.6584,2.04686 -83.6429,25.7245 -106.57413,62.58398 -1.93759,3.11826 -3.76802,6.31645 -5.45508,9.61328 8.58722,2.1588 16.93926,5.18369 24.96679,8.9336 3.69661,-6.71359 8.05684,-12.90203 12.93946,-18.54688 18.60556,-21.5027 45.10446,-34.78456 74.12296,-36.43164 z m -912.90031,33.96679 c -26.57907,0 -51.27599,10.53126 -69.404293,28.61719 -6.458004,6.44441 -12.100554,13.82442 -16.671875,22.0625 7.711439,4.14169 15.008448,9.04752 21.839844,14.56445 9.467795,-18.29914 26.158924,-31.45383 45.669924,-36.62695 h 0.002 c 5.96841,-1.58046 12.19199,-2.44531 18.56445,-2.44531 6.37351,0 12.59605,0.86485 18.56446,2.44531 h 0.002 c 19.50887,5.17578 36.20044,18.32781 45.66797,36.62695 6.84418,-5.53292 14.15069,-10.44477 21.86719,-14.59179 -4.57238,-8.22742 -10.21512,-15.59608 -16.66993,-22.03516 -18.1387,-18.0886 -42.84538,-28.61719 -69.43164,-28.61719 z m 306.34571,0 c -26.57987,0 -51.27573,10.53126 -69.4043,28.61719 -6.45774,6.44441 -12.10304,13.82442 -16.67383,22.0625 7.71038,4.14169 15.00827,9.04752 21.8418,14.56445 9.46673,-18.29914 26.15811,-31.45383 45.66992,-36.62695 5.97001,-1.58046 12.19396,-2.44531 18.56641,-2.44531 6.37245,0 12.59515,0.86485 18.5625,2.44531 h 0.004 c 19.50914,5.17578 36.20124,18.32781 45.66797,36.62695 6.84419,-5.53292 14.14953,-10.44477 21.86524,-14.59179 -4.57079,-8.22742 -10.21485,-15.59608 -16.66993,-22.03516 -18.13657,-18.0886 -42.84448,-28.61719 -69.42968,-28.61719 z m 306.34375,0 c -26.57987,0 -51.27573,10.53126 -69.4043,28.61719 -6.45774,6.44441 -12.10109,13.82442 -16.67187,22.0625 7.71037,4.14169 15.00631,9.04752 21.83984,14.56445 9.46673,-18.29914 26.16007,-31.45383 45.67187,-36.62695 5.97001,-1.58046 12.19201,-2.44531 18.56446,-2.44531 6.37245,0 12.59515,0.86485 18.5625,2.44531 h 0.004 c 19.50914,5.17312 36.20124,18.32781 45.66797,36.62695 6.84685,-5.53292 14.14882,-10.44477 21.86719,-14.59179 -4.57345,-8.22742 -10.21556,-15.59608 -16.66797,-22.03516 h -0.002 C 817.15648,895.2381 792.4466,884.70951 765.8614,884.70951 Z m 300.21085,0.21094 c -24.2265,1.48717 -46.5473,11.71954 -63.2714,28.40625 -6.45771,6.44441 -12.10108,13.82442 -16.67187,22.0625 7.71304,4.14169 15.00897,9.04752 21.83977,14.56445 9.4667,-18.29914 26.1601,-31.45383 45.6719,-36.62695 4.0377,-1.06874 8.1966,-1.77869 12.4316,-2.14648 z m -912.90031,33.95703 c -24.81632,0 -47.26573,14.19409 -57.96484,36.40039 4.82212,4.43486 9.9348,9.8122 14.51758,14.63086 1.93439,2.03619 4.10188,4.31618 5.9707,6.20313 3.33548,-17.66217 18.87118,-31.0625 37.47656,-31.0625 18.6083,0 34.14703,13.38436 37.4961,31.0332 1.87602,-1.89494 4.05326,-4.18113 5.99804,-6.22266 4.57452,-4.80532 9.67551,-10.16457 14.47071,-14.57812 -10.70018,-22.20896 -33.14641,-36.4043 -57.96485,-36.4043 z m 306.34571,0 c -24.81818,0 -47.26681,14.19409 -57.96485,36.40039 4.82132,4.43486 9.93347,9.8122 14.51758,14.63086 1.93492,2.03619 4.10046,4.31618 5.96875,6.20313 3.33681,-17.66217 18.87288,-31.0625 37.47852,-31.0625 18.6083,0 34.14596,13.38436 37.49609,31.0332 1.87629,-1.89494 4.05317,-4.18113 5.99609,-6.22266 4.57345,-4.80532 9.67799,-10.16457 14.47266,-14.57812 -10.70071,-22.20896 -33.14666,-36.4043 -57.96484,-36.4043 z m 306.34375,0 c -24.81818,0 -47.26414,14.19409 -57.96485,36.40039 4.82398,4.43486 9.93613,9.8122 14.51758,14.63086 1.93493,2.03619 4.1017,4.31618 5.97266,6.20313 3.33414,-17.66217 18.86897,-31.0625 37.47461,-31.0625 18.60831,0 34.14862,13.38436 37.49609,31.0332 1.87628,-1.89494 4.05513,-4.18113 5.99805,-6.22266 4.57611,-4.80532 9.67603,-10.16457 14.4707,-14.57812 -10.70071,-22.20896 -33.14666,-36.4043 -57.96484,-36.4043 z m 300.21085,0.32617 c -22.3316,2.12682 -42.0215,15.71489 -51.832,36.07422 4.824,4.43486 9.9362,9.8122 14.5176,14.63086 1.935,2.03619 4.1017,4.31618 5.9726,6.20313 2.961,-15.67927 15.5399,-27.97302 31.3418,-30.54492 z M -2.12e-5,926.65287 v 26.17188 c 39.0990292,0 74.4340972,21.05242 93.2207032,55.13475 8.034998,-3.7552 16.379598,-6.7801 24.943358,-8.93358 C 95.599541,954.90115 49.753609,926.65287 -2.12e-5,926.65287 Z m 306.3437512,0 c -49.74643,0.003 -95.5921,28.25768 -118.16406,72.39844 8.58908,2.15609 16.94077,5.18099 24.9707,8.93359 18.76661,-34.10104 54.0898,-55.16015 93.19336,-55.16015 39.1009,0 74.43382,21.05242 93.2207,55.13475 8.03552,-3.7552 16.38013,-6.7801 24.94336,-8.93358 -22.56344,-44.12477 -68.41043,-72.37305 -118.16406,-72.37305 z m 306.34375,0 c -49.74563,0.003 -95.59067,28.25768 -118.16211,72.39844 8.58722,2.15609 16.93855,5.18099 24.96875,8.93359 18.76555,-34.10104 54.09247,-55.16015 93.19336,-55.16015 39.1009,0 74.43649,21.05242 93.2207,55.13475 8.03552,-3.7552 16.38013,-6.7801 24.94336,-8.93358 -22.56344,-44.12477 -68.41043,-72.37305 -118.16406,-72.37305 z m 306.3457,0 c -49.74563,0.003 -95.59262,28.2584 -118.16406,72.39649 8.58722,2.15874 16.93856,5.18294 24.96875,8.93554 18.76555,-34.10104 54.09442,-55.16015 93.19531,-55.16015 z m 0.002,0 v 26.17188 c 39.09823,0 74.43386,21.05242 93.22062,55.13475 8.0329,-3.7552 16.3763,-6.7774 24.9395,-8.93358 -22.5634,-44.12477 -68.40916,-72.37305 -118.16012,-72.37305 z M -2.12e-5,960.81889 v 26.17383 c 27.2024532,0 51.8692602,15.17158 64.2343752,39.07028 6.843922,-5.5303 14.150417,-10.4435 21.867187,-14.5879 C 68.680841,980.12726 36.046575,960.81889 -2.12e-5,960.81889 Z m 306.3437512,0 c -36.04659,0 -68.67333,19.31847 -86.07617,50.67971 7.71117,4.1417 15.00818,9.0487 21.83984,14.5683 12.36511,-23.8987 37.03281,-39.07418 64.23633,-39.07418 27.20352,0 51.86989,15.17158 64.23633,39.07028 6.84419,-5.5303 14.14953,-10.4435 21.86523,-14.5879 -17.41963,-31.34784 -50.05496,-50.65621 -86.10156,-50.65621 z m 306.34375,0 c -36.04659,0 -68.67324,19.31847 -86.07422,50.67971 7.71038,4.1417 15.00703,9.0487 21.83789,14.5683 12.36645,-23.8987 37.03281,-39.07418 64.23633,-39.07418 27.20352,0 51.87255,15.17158 64.23633,39.07028 6.84419,-5.5303 14.14953,-10.4435 21.86523,-14.5879 -17.41963,-31.34784 -50.05496,-50.65621 -86.10156,-50.65621 z m 306.3457,0 c -36.04659,0 -68.67252,19.31847 -86.07617,50.67971 7.71038,4.1417 15.00898,9.0487 21.83984,14.5683 12.36645,-23.8987 37.03281,-39.07418 64.23633,-39.07418 z m 0.002,0 v 26.17383 c 27.20085,0 51.86863,15.17158 64.23242,39.07028 6.84418,-5.5303 14.14949,-10.4435 21.8652,-14.5879 -17.41964,-31.34784 -50.05369,-50.65621 -86.09762,-50.65621 z M -2.12e-5,994.98686 v 26.17184 c 18.6083852,0 34.1478252,13.3843 37.4960942,31.0332 1.876822,-1.8923 4.053262,-4.1811 5.998046,-6.2226 4.573453,-4.8054 9.674441,-10.1646 14.470704,-14.5781 -10.700176,-22.209 -33.14637,-36.40434 -57.9648442,-36.40434 z m 306.3437512,0 c -24.81551,0 -47.2644,14.19604 -57.96484,36.40234 4.82345,4.4349 9.93586,9.8096 14.51757,14.6309 1.93546,2.0362 4.10436,4.3141 5.97266,6.2011 3.33414,-17.6622 18.86897,-31.0599 37.47461,-31.0625 18.60831,0 34.14862,13.3843 37.49609,31.0332 1.87628,-1.8923 4.05442,-4.1811 6,-6.2226 4.57346,-4.8054 9.67409,-10.1646 14.46875,-14.5781 -10.69804,-22.209 -33.14666,-36.40434 -57.96484,-36.40434 z m 306.34375,0 c -24.81551,0 -47.26413,14.19604 -57.96484,36.40234 4.82398,4.4349 9.93613,9.8096 14.51757,14.6309 1.93493,2.0362 4.10437,4.3141 5.97266,6.2011 3.33414,-17.6622 18.86897,-31.0599 37.47461,-31.0625 18.60831,0 34.15058,13.3843 37.49805,31.0332 1.87629,-1.8923 4.05246,-4.1811 5.99804,-6.2226 4.57346,-4.8054 9.67409,-10.1646 14.46875,-14.5781 -10.69804,-22.209 -33.14666,-36.40434 -57.96484,-36.40434 z m 306.3457,0 c -24.81551,0 -47.26485,14.19604 -57.96289,36.40234 4.82132,4.4349 9.93222,9.8122 14.51367,14.6309 1.93492,2.0362 4.10437,4.3141 5.97266,6.2011 3.33681,-17.6622 18.87092,-31.0625 37.47656,-31.0625 z m 0.002,0 v 26.17184 c 18.6083,0 34.14667,13.3843 37.49414,31.0332 1.87895,-1.8923 4.05246,-4.1811 5.99804,-6.2226 4.57346,-4.8054 9.67533,-10.1646 14.47266,-14.5781 -10.70071,-22.209 -33.14666,-36.40434 -57.96484,-36.40434 z m -765.86329,7.77734 c -46.23773,0 -89.094349,24.4209 -113.035152,63.3086 h 16.068359 v 0.5234 l 0.693359,-0.5234 h 15.541016 c 19.923307,-23.3363 49.087368,-37.1367 80.732418,-37.1367 31.65117,0 60.82588,13.8004 80.76172,37.1367 h 32.28907 c -23.93254,-38.8877 -66.79735,-63.3086 -113.05079,-63.3086 z m 306.34571,0 c -46.23825,0 -89.09649,24.4209 -113.03516,63.3086 h 32.30078 c 19.9249,-23.3363 49.088,-37.1367 80.73438,-37.1367 31.64904,0 60.82544,13.8004 80.76367,37.1367 h 32.28516 c -23.93334,-38.8877 -66.79725,-63.3086 -113.04883,-63.3086 z m 306.34375,0 c -46.23825,0 -89.09382,24.4209 -113.03516,63.3086 h 32.30078 c 19.9249,-23.3363 49.088,-37.1367 80.73438,-37.1367 31.64904,0 60.8281,13.8004 80.76367,37.1367 h 32.28516 c -23.93067,-38.8877 -66.79458,-63.3086 -113.04883,-63.3086 z m 300.21085,0.1602 c -43.8716,2.0522 -84.02433,25.9851 -106.90226,63.1484 h 32.30469 c 18.62697,-21.8198 45.33647,-35.2712 74.59757,-36.9316 z m -912.90031,34.0078 c -26.84133,0 -51.77595,10.7215 -69.951168,29.1406 h 49.474608 c 6.54436,-1.9296 13.42102,-2.9707 20.47656,-2.9707 7.05633,0 13.93417,1.0411 20.47852,2.9707 h 49.5 c -18.18561,-18.4191 -43.13001,-29.1406 -69.97852,-29.1406 z m 306.34571,0 c -26.84106,0 -51.77728,10.7215 -69.95117,29.1406 h 49.47265 c 6.54568,-1.9296 13.42112,-2.9707 20.47852,-2.9707 7.05474,0 13.93353,1.0411 20.47656,2.9707 h 27.42383 l 0.69336,0.5234 v -0.5234 h 21.38672 c -18.18721,-18.4191 -43.13142,-29.1406 -69.98047,-29.1406 z m 306.34375,0 c -26.84105,0 -51.77534,10.7215 -69.94922,29.1406 h 49.4707 c 6.54569,-1.9296 13.42378,-2.9707 20.47852,-2.9707 7.05474,0 13.93354,1.0411 20.47656,2.9707 h 49.50391 c -18.18721,-18.4191 -43.13142,-29.1406 -69.98047,-29.1406 z m 300.21085,0.205 c -24.4904,1.4979 -47.0338,11.9291 -63.8164,28.9356 h 49.4727 c 4.6294,-1.3645 9.4317,-2.2678 14.3437,-2.6836 z m -445.57218,28.9356 v 0.5234 l 0.69336,-0.5234 z" />
    </g>
  </g>
</svg>
