<svg xmlns="http://www.w3.org/2000/svg" xmlns:xlink="http://www.w3.org/1999/xlink" width="2000" zoomAndPan="magnify" viewBox="0 0 1500 1499.999933" height="2000" preserveAspectRatio="xMidYMid meet" version="1.0"><defs><clipPath id="f392fbd86a"><path d="M 464.582031 37.386719 L 924.804688 37.386719 L 924.804688 132.253906 L 464.582031 132.253906 Z M 830.179688 132.253906 L 924.804688 132.253906 L 924.804688 192.230469 L 830.179688 192.230469 Z M 830.179688 192.230469 L 1111.449219 192.230469 L 1111.449219 192.253906 L 830.179688 192.253906 Z M 616.09375 192.253906 L 1111.449219 192.253906 L 1111.449219 287.164062 L 616.09375 287.164062 Z M 616.09375 287.164062 L 711.003906 287.164062 L 711.003906 401.832031 L 616.09375 401.832031 Z M 830.179688 287.164062 L 924.804688 287.164062 L 924.804688 401.832031 L 830.179688 401.832031 Z M 464.582031 132.253906 L 560.582031 132.253906 L 560.582031 401.832031 L 464.582031 401.832031 Z M 464.582031 401.832031 L 924.804688 401.832031 L 924.804688 497.609375 L 464.582031 497.609375 Z M 616.09375 497.609375 L 711.003906 497.609375 L 711.003906 991.296875 L 616.09375 991.296875 Z M 466.25 991.296875 L 926.46875 991.296875 L 926.46875 1086.164062 L 466.25 1086.164062 Z M 616.09375 1086.164062 L 711.003906 1086.164062 L 711.003906 1207.164062 L 616.09375 1207.164062 Z M 831.847656 1086.164062 L 926.46875 1086.164062 L 926.46875 1207.164062 L 831.847656 1207.164062 Z M 615.847656 1207.164062 L 1111.246094 1207.164062 L 1111.246094 1302.074219 L 615.847656 1302.074219 Z M 831.847656 1302.074219 L 926.46875 1302.074219 L 926.46875 1355.71875 L 831.847656 1355.71875 Z M 466.25 1086.164062 L 562.25 1086.164062 L 562.25 1355.71875 L 466.25 1355.71875 Z M 466.25 1355.71875 L 926.46875 1355.71875 L 926.46875 1451.519531 L 466.25 1451.519531 Z M 466.25 1355.71875 " clip-rule="nonzero"/></clipPath><clipPath id="9800ed3b9b"><path d="M 0.582031 0.386719 L 460.804688 0.386719 L 460.804688 95.253906 L 0.582031 95.253906 Z M 366.179688 95.253906 L 460.804688 95.253906 L 460.804688 155.230469 L 366.179688 155.230469 Z M 366.179688 155.230469 L 647.449219 155.230469 L 647.449219 155.253906 L 366.179688 155.253906 Z M 152.09375 155.253906 L 647.449219 155.253906 L 647.449219 250.164062 L 152.09375 250.164062 Z M 152.09375 250.164062 L 247.003906 250.164062 L 247.003906 364.832031 L 152.09375 364.832031 Z M 366.179688 250.164062 L 460.804688 250.164062 L 460.804688 364.832031 L 366.179688 364.832031 Z M 0.582031 95.253906 L 96.582031 95.253906 L 96.582031 364.832031 L 0.582031 364.832031 Z M 0.582031 364.832031 L 460.804688 364.832031 L 460.804688 460.609375 L 0.582031 460.609375 Z M 152.09375 460.609375 L 247.003906 460.609375 L 247.003906 954.296875 L 152.09375 954.296875 Z M 2.25 954.296875 L 462.46875 954.296875 L 462.46875 1049.164062 L 2.25 1049.164062 Z M 152.09375 1049.164062 L 247.003906 1049.164062 L 247.003906 1170.164062 L 152.09375 1170.164062 Z M 367.847656 1049.164062 L 462.46875 1049.164062 L 462.46875 1170.164062 L 367.847656 1170.164062 Z M 151.847656 1170.164062 L 647.246094 1170.164062 L 647.246094 1265.074219 L 151.847656 1265.074219 Z M 367.847656 1265.074219 L 462.46875 1265.074219 L 462.46875 1318.71875 L 367.847656 1318.71875 Z M 2.25 1049.164062 L 98.25 1049.164062 L 98.25 1318.71875 L 2.25 1318.71875 Z M 2.25 1318.71875 L 462.46875 1318.71875 L 462.46875 1414 L 2.25 1414 Z M 2.25 1318.71875 " clip-rule="nonzero"/></clipPath><clipPath id="bba2de9c7a"><rect x="0" width="648" y="0" height="1415"/></clipPath></defs><g clip-path="url(#f392fbd86a)"><g transform="matrix(1, 0, 0, 1, 464, 37)"><g clip-path="url(#bba2de9c7a)"><g clip-path="url(#9800ed3b9b)"><path fill="#cc0000" d="M 0.582031 0.386719 L 647.457031 0.386719 L 647.457031 1413.765625 L 0.582031 1413.765625 Z M 0.582031 0.386719 " fill-opacity="1" fill-rule="nonzero"/></g></g></g></g></svg>